G04 #@! TF.GenerationSoftware,KiCad,Pcbnew,(5.0.0)*
G04 #@! TF.CreationDate,2018-08-29T15:59:37+03:00*
G04 #@! TF.ProjectId,RDC2-0034A,524443322D30303334412E6B69636164,rev?*
G04 #@! TF.SameCoordinates,Original*
G04 #@! TF.FileFunction,Copper,L2,Bot,Signal*
G04 #@! TF.FilePolarity,Positive*
%FSLAX46Y46*%
G04 Gerber Fmt 4.6, Leading zero omitted, Abs format (unit mm)*
G04 Created by KiCad (PCBNEW (5.0.0)) date 08/29/18 15:59:37*
%MOMM*%
%LPD*%
G01*
G04 APERTURE LIST*
G04 #@! TA.AperFunction,ComponentPad*
%ADD10C,3.000000*%
G04 #@! TD*
G04 #@! TA.AperFunction,ComponentPad*
%ADD11C,5.200000*%
G04 #@! TD*
G04 #@! TA.AperFunction,ComponentPad*
%ADD12R,1.300000X1.300000*%
G04 #@! TD*
G04 #@! TA.AperFunction,ComponentPad*
%ADD13C,1.300000*%
G04 #@! TD*
G04 #@! TA.AperFunction,ComponentPad*
%ADD14R,1.500000X1.500000*%
G04 #@! TD*
G04 #@! TA.AperFunction,ComponentPad*
%ADD15C,1.500000*%
G04 #@! TD*
G04 #@! TA.AperFunction,ComponentPad*
%ADD16C,6.400000*%
G04 #@! TD*
G04 #@! TA.AperFunction,ComponentPad*
%ADD17R,2.032000X2.032000*%
G04 #@! TD*
G04 #@! TA.AperFunction,ComponentPad*
%ADD18O,2.032000X2.032000*%
G04 #@! TD*
G04 #@! TA.AperFunction,ViaPad*
%ADD19C,0.700000*%
G04 #@! TD*
G04 #@! TA.AperFunction,ViaPad*
%ADD20C,0.900000*%
G04 #@! TD*
G04 #@! TA.AperFunction,Conductor*
%ADD21C,0.250000*%
G04 #@! TD*
G04 #@! TA.AperFunction,Conductor*
%ADD22C,0.300000*%
G04 #@! TD*
G04 #@! TA.AperFunction,Conductor*
%ADD23C,1.000000*%
G04 #@! TD*
G04 #@! TA.AperFunction,Conductor*
%ADD24C,0.400000*%
G04 #@! TD*
G04 APERTURE END LIST*
D10*
G04 #@! TO.P,P11,1*
G04 #@! TO.N,Net-(C18-Pad1)*
X120015000Y-50927000D03*
G04 #@! TD*
G04 #@! TO.P,P12,1*
G04 #@! TO.N,Net-(C16-Pad1)*
X120015000Y-56515000D03*
G04 #@! TD*
G04 #@! TO.P,P13,1*
G04 #@! TO.N,Net-(C17-Pad2)*
X120015000Y-111125000D03*
G04 #@! TD*
G04 #@! TO.P,P14,1*
G04 #@! TO.N,Net-(C19-Pad2)*
X120015000Y-116840000D03*
G04 #@! TD*
D11*
G04 #@! TO.P,REF\002A\002A,1*
G04 #@! TO.N,GND*
X120015000Y-104775000D03*
X78105000Y-62865000D03*
G04 #@! TD*
D12*
G04 #@! TO.P,C13,1*
G04 #@! TO.N,15V*
X90678000Y-58801000D03*
D13*
G04 #@! TO.P,C13,2*
G04 #@! TO.N,GND*
X90678000Y-53801000D03*
G04 #@! TD*
D12*
G04 #@! TO.P,C14,1*
G04 #@! TO.N,Net-(C14-Pad1)*
X107442000Y-60706000D03*
D13*
G04 #@! TO.P,C14,2*
G04 #@! TO.N,GND*
X107442000Y-62706000D03*
G04 #@! TD*
G04 #@! TO.P,C15,2*
G04 #@! TO.N,GND*
X108204000Y-52888000D03*
D12*
G04 #@! TO.P,C15,1*
G04 #@! TO.N,12V*
X108204000Y-56388000D03*
G04 #@! TD*
D14*
G04 #@! TO.P,C20,1*
G04 #@! TO.N,VDD*
X109220000Y-45085000D03*
D15*
G04 #@! TO.P,C20,2*
G04 #@! TO.N,GND*
X109220000Y-37585000D03*
G04 #@! TD*
D14*
G04 #@! TO.P,C21,1*
G04 #@! TO.N,VDD*
X109220000Y-121920000D03*
D15*
G04 #@! TO.P,C21,2*
G04 #@! TO.N,GND*
X109220000Y-129420000D03*
G04 #@! TD*
D10*
G04 #@! TO.P,P4,1*
G04 #@! TO.N,VDD*
X120015000Y-41910000D03*
G04 #@! TD*
G04 #@! TO.P,P5,1*
G04 #@! TO.N,GND*
X120650000Y-125730000D03*
G04 #@! TD*
D14*
G04 #@! TO.P,P1,1*
G04 #@! TO.N,Net-(C1-Pad2)*
X77470000Y-51435000D03*
D15*
G04 #@! TO.P,P1,2*
G04 #@! TO.N,GND*
X77470000Y-53975000D03*
G04 #@! TO.P,P1,3*
G04 #@! TO.N,Net-(C2-Pad2)*
X77470000Y-56515000D03*
G04 #@! TD*
D14*
G04 #@! TO.P,P2,1*
G04 #@! TO.N,Net-(C3-Pad2)*
X77470000Y-111125000D03*
D15*
G04 #@! TO.P,P2,2*
G04 #@! TO.N,GND*
X77470000Y-113665000D03*
G04 #@! TO.P,P2,3*
G04 #@! TO.N,Net-(C4-Pad2)*
X77470000Y-116205000D03*
G04 #@! TD*
D14*
G04 #@! TO.P,P3,1*
G04 #@! TO.N,VDD*
X83820000Y-39370000D03*
D15*
G04 #@! TO.P,P3,2*
G04 #@! TO.N,GND*
X86360000Y-39370000D03*
G04 #@! TO.P,P3,3*
G04 #@! TO.N,15V*
X88900000Y-39370000D03*
G04 #@! TD*
G04 #@! TO.P,P6,1*
G04 #@! TO.N,VDD*
X117348000Y-62611000D03*
G04 #@! TD*
G04 #@! TO.P,P7,1*
G04 #@! TO.N,VDD*
X119380000Y-74930000D03*
G04 #@! TD*
G04 #@! TO.P,P8,1*
G04 #@! TO.N,VDD*
X119380000Y-91440000D03*
G04 #@! TD*
G04 #@! TO.P,P9,1*
G04 #@! TO.N,VDD*
X108775500Y-104584500D03*
G04 #@! TD*
G04 #@! TO.P,P10,1*
G04 #@! TO.N,RES*
X95504000Y-104648000D03*
G04 #@! TD*
D16*
G04 #@! TO.P,REF\002A\002A,1*
G04 #@! TO.N,GND*
X73660000Y-33020000D03*
G04 #@! TD*
G04 #@! TO.P,REF\002A\002A,1*
G04 #@! TO.N,GND*
X124460000Y-33020000D03*
G04 #@! TD*
G04 #@! TO.P,REF\002A\002A,1*
G04 #@! TO.N,GND*
X73660000Y-134620000D03*
G04 #@! TD*
G04 #@! TO.P,REF\002A\002A,1*
G04 #@! TO.N,GND*
X124460000Y-134620000D03*
G04 #@! TD*
D17*
G04 #@! TO.P,REF\002A\002A,1*
G04 #@! TO.N,GND*
X93218000Y-48641000D03*
D18*
G04 #@! TO.P,REF\002A\002A,2*
G04 #@! TO.N,15V*
X90678000Y-48641000D03*
G04 #@! TD*
D17*
G04 #@! TO.P,REF\002A\002A,1*
G04 #@! TO.N,12V*
X77470000Y-46355000D03*
D18*
G04 #@! TO.P,REF\002A\002A,2*
G04 #@! TO.N,GND*
X77470000Y-48895000D03*
G04 #@! TD*
D19*
G04 #@! TO.N,GND*
X92837000Y-75692000D03*
X90424000Y-75819000D03*
X90297000Y-74422000D03*
X89408000Y-72136000D03*
X89408000Y-68707000D03*
X91440000Y-68707000D03*
X82931000Y-67691000D03*
X82804000Y-71374000D03*
X82804000Y-74803000D03*
X82804000Y-78232000D03*
X82931000Y-86487000D03*
X82804000Y-84201000D03*
X82804000Y-81534000D03*
X95885000Y-41529000D03*
X95885000Y-44577000D03*
X90424000Y-78105000D03*
X88138000Y-75819000D03*
X86741000Y-74041000D03*
X86741000Y-69850000D03*
X86741000Y-66802000D03*
X86741000Y-61468000D03*
X86614000Y-58674000D03*
X86614000Y-55626000D03*
X88773000Y-55626000D03*
X89154000Y-60833000D03*
X96266000Y-66548000D03*
X95250000Y-68834000D03*
X75057000Y-129159000D03*
X75057000Y-126365000D03*
X75057000Y-123063000D03*
X75057000Y-118491000D03*
X75184000Y-115316000D03*
X121285000Y-131318000D03*
X116332000Y-133096000D03*
X77597000Y-130937000D03*
X79248000Y-133096000D03*
X84328000Y-133096000D03*
X89408000Y-133096000D03*
X89408000Y-128270000D03*
X89408000Y-122428000D03*
X89408000Y-119634000D03*
X89408000Y-116586000D03*
X92329000Y-113919000D03*
X92202000Y-110490000D03*
X92202000Y-107315000D03*
X92202000Y-103632000D03*
X92202000Y-99695000D03*
X92202000Y-97155000D03*
X92202000Y-95250000D03*
X92837000Y-93599000D03*
X73660000Y-134620000D03*
X85598000Y-102616000D03*
X88138000Y-102362000D03*
X88138000Y-100203000D03*
X88138000Y-98552000D03*
X88011000Y-96139000D03*
X88011000Y-93853000D03*
X86487000Y-91567000D03*
X88011000Y-91694000D03*
X88138000Y-89789000D03*
X92837000Y-89916000D03*
X92837000Y-91567000D03*
X80137000Y-113665000D03*
X83820000Y-113665000D03*
X86995000Y-113665000D03*
X88900000Y-112395000D03*
X89535000Y-109855000D03*
X89535000Y-107315000D03*
X90170000Y-105410000D03*
X90297000Y-102616000D03*
X90297000Y-91567000D03*
X90297000Y-93345000D03*
X90297000Y-95123000D03*
X90297000Y-97409000D03*
X90297000Y-100076000D03*
X122682000Y-66675000D03*
X122682000Y-73914000D03*
X77851000Y-70739000D03*
X74803000Y-70739000D03*
X74676000Y-74549000D03*
X74676000Y-77851000D03*
X74676000Y-81026000D03*
X74676000Y-96012000D03*
X74676000Y-92964000D03*
X74676000Y-90297000D03*
X74676000Y-87376000D03*
X112395000Y-94234000D03*
X111760000Y-93345000D03*
X109855000Y-91440000D03*
X107950000Y-89535000D03*
X106680000Y-88265000D03*
X107315000Y-127635000D03*
X103505000Y-121920000D03*
X103505000Y-116205000D03*
X103505000Y-110490000D03*
X103505000Y-104775000D03*
X107315000Y-101600000D03*
X107950000Y-96520000D03*
X102870000Y-97155000D03*
X100965000Y-95885000D03*
X98425000Y-94615000D03*
X100965000Y-93345000D03*
X116205000Y-95250000D03*
X115951000Y-91694000D03*
X113919000Y-89535000D03*
X112141000Y-87757000D03*
X112268000Y-61722000D03*
X112141000Y-66294000D03*
X112141000Y-69596000D03*
X112014000Y-73914000D03*
X110617000Y-75819000D03*
X108966000Y-77597000D03*
X105664000Y-64389000D03*
X102997000Y-67183000D03*
X102997000Y-70231000D03*
X101981000Y-72390000D03*
X103759000Y-72517000D03*
X122682000Y-38735000D03*
X120269000Y-36449000D03*
X118364000Y-34544000D03*
X113538000Y-34544000D03*
X107188000Y-34544000D03*
X100838000Y-34544000D03*
X94234000Y-34544000D03*
X88646000Y-34544000D03*
X82296000Y-34544000D03*
X75819000Y-108204000D03*
X74930000Y-59690000D03*
X74930000Y-57150000D03*
X74930000Y-54610000D03*
X74930000Y-52070000D03*
X74930000Y-49530000D03*
X74930000Y-46863000D03*
X74930000Y-44704000D03*
X76200000Y-43180000D03*
X76200000Y-40640000D03*
X76200000Y-38100000D03*
X78740000Y-35560000D03*
X96621600Y-87160100D03*
X97701100Y-87122000D03*
X97701100Y-85064600D03*
X97713800Y-84302600D03*
X97701100Y-82727800D03*
X97713800Y-81051400D03*
X96799400Y-81076800D03*
X96862900Y-82702400D03*
X105638600Y-72694800D03*
X105625900Y-74510900D03*
X105613200Y-75653900D03*
X105537000Y-95186500D03*
X105473500Y-93548200D03*
X96761300Y-84988400D03*
X96786700Y-84378800D03*
X88315800Y-85420200D03*
X89992200Y-85483700D03*
X91655900Y-84582000D03*
X92938600Y-84556600D03*
X101803200Y-91694000D03*
X101155500Y-91020900D03*
X101180900Y-90131900D03*
X101173280Y-89362280D03*
X101180900Y-76276200D03*
X101180900Y-77012800D03*
X101180900Y-77952600D03*
X101180900Y-78790800D03*
X109220000Y-83185000D03*
X114554000Y-83058000D03*
X114554000Y-84963000D03*
X109220000Y-85090000D03*
X93726000Y-133096000D03*
X97790000Y-133096000D03*
X101600000Y-133096000D03*
X74803000Y-98933000D03*
X74676000Y-83947000D03*
X89535000Y-81534000D03*
X89535000Y-83439000D03*
X92202000Y-82804000D03*
X111887000Y-84201000D03*
X122809000Y-82423000D03*
X122936000Y-84963000D03*
X122936000Y-91567000D03*
X122936000Y-95250000D03*
X122936000Y-99060000D03*
X122682000Y-62230000D03*
X86487000Y-41910000D03*
X86487000Y-45339000D03*
X95250000Y-73660000D03*
X100965000Y-74676000D03*
X100965000Y-49784000D03*
X97917000Y-73406000D03*
X99695000Y-73406000D03*
G04 #@! TO.N,12V*
X80645000Y-95250000D03*
X94742000Y-92456000D03*
X94742000Y-75184000D03*
D20*
G04 #@! TO.N,Net-(C16-Pad1)*
X101028500Y-82486500D03*
X105029000Y-83121500D03*
X100330000Y-82486500D03*
X100324920Y-83185000D03*
X105740200Y-83129120D03*
X101025960Y-83185000D03*
G04 #@! TO.N,Net-(C17-Pad2)*
X101028500Y-85026500D03*
X101031040Y-85725000D03*
X100324920Y-85725000D03*
X105029000Y-85026500D03*
X100330000Y-85026500D03*
X105745280Y-85034120D03*
G04 #@! TO.N,Net-(C18-Pad1)*
X101028500Y-79946500D03*
X100330000Y-80650000D03*
X104394000Y-79629000D03*
X100330000Y-79946500D03*
X105029000Y-78994000D03*
X101030000Y-80650000D03*
G04 #@! TO.N,Net-(C19-Pad2)*
X101028500Y-87566500D03*
X101020880Y-88270080D03*
X100330000Y-87566500D03*
X104330500Y-88201500D03*
X100330000Y-88270080D03*
X104902000Y-89027000D03*
D19*
G04 #@! TO.N,FAULT*
X97536000Y-88900000D03*
X78676500Y-78676500D03*
G04 #@! TO.N,CLIP*
X78359000Y-88900000D03*
X97028000Y-90805000D03*
G04 #@! TO.N,+3V3*
X78422500Y-101219000D03*
X80391000Y-67564000D03*
X98679000Y-63881000D03*
X81788000Y-101219000D03*
X97536000Y-101346000D03*
X80137000Y-78740000D03*
G04 #@! TD*
D21*
G04 #@! TO.N,GND*
X90551000Y-75692000D02*
X92837000Y-75692000D01*
X90424000Y-75819000D02*
X90551000Y-75692000D01*
X90297000Y-73025000D02*
X90297000Y-74422000D01*
X89408000Y-72136000D02*
X90297000Y-73025000D01*
X91440000Y-68707000D02*
X89408000Y-68707000D01*
X82804000Y-78232000D02*
X82804000Y-81534000D01*
X82931000Y-67691000D02*
X82804000Y-67818000D01*
X82804000Y-67818000D02*
X82804000Y-71374000D01*
X82804000Y-74803000D02*
X82804000Y-78232000D01*
X82931000Y-84328000D02*
X82931000Y-86487000D01*
X82804000Y-84201000D02*
X82931000Y-84328000D01*
X95885000Y-44577000D02*
X95885000Y-41529000D01*
X88773000Y-55626000D02*
X86614000Y-55626000D01*
X87122000Y-74803000D02*
X88138000Y-75819000D01*
X87122000Y-74422000D02*
X87122000Y-74803000D01*
X86741000Y-74041000D02*
X87122000Y-74422000D01*
X86741000Y-66802000D02*
X86741000Y-69850000D01*
X86741000Y-58801000D02*
X86741000Y-61468000D01*
X86614000Y-58674000D02*
X86741000Y-58801000D01*
X88773000Y-55626000D02*
X89154000Y-56007000D01*
X89154000Y-56007000D02*
X89154000Y-60833000D01*
X96266000Y-67818000D02*
X96266000Y-66548000D01*
X95250000Y-68834000D02*
X96266000Y-67818000D01*
X75057000Y-129159000D02*
X75057000Y-128905000D01*
X75057000Y-123063000D02*
X75057000Y-126365000D01*
X75057000Y-115443000D02*
X75057000Y-118491000D01*
X75184000Y-115316000D02*
X75057000Y-115443000D01*
X121285000Y-131318000D02*
X119507000Y-133096000D01*
X119507000Y-133096000D02*
X116332000Y-133096000D01*
X77597000Y-131445000D02*
X77597000Y-130937000D01*
X79248000Y-133096000D02*
X77597000Y-131445000D01*
X89408000Y-133096000D02*
X84328000Y-133096000D01*
X89408000Y-122428000D02*
X89408000Y-128270000D01*
X89408000Y-116586000D02*
X89408000Y-119634000D01*
X92329000Y-110617000D02*
X92329000Y-113919000D01*
X92202000Y-110490000D02*
X92329000Y-110617000D01*
X92202000Y-103632000D02*
X92202000Y-107315000D01*
X92202000Y-97155000D02*
X92202000Y-99695000D01*
X92202000Y-94234000D02*
X92202000Y-95250000D01*
X92837000Y-93599000D02*
X92202000Y-94234000D01*
X87884000Y-102616000D02*
X85598000Y-102616000D01*
X88138000Y-102362000D02*
X87884000Y-102616000D01*
X88138000Y-98552000D02*
X88138000Y-100203000D01*
X88011000Y-93853000D02*
X88011000Y-96139000D01*
X90297000Y-91567000D02*
X92837000Y-91567000D01*
X87884000Y-91567000D02*
X86487000Y-91567000D01*
X88011000Y-91694000D02*
X87884000Y-91567000D01*
X92710000Y-89789000D02*
X88138000Y-89789000D01*
X92837000Y-89916000D02*
X92710000Y-89789000D01*
X78676500Y-114808000D02*
X78994000Y-114808000D01*
X78994000Y-114808000D02*
X80137000Y-113665000D01*
X83820000Y-113665000D02*
X86995000Y-113665000D01*
X88900000Y-112395000D02*
X89535000Y-111760000D01*
X89535000Y-111760000D02*
X89535000Y-109855000D01*
X89535000Y-107315000D02*
X90170000Y-106680000D01*
X90170000Y-106680000D02*
X90170000Y-105410000D01*
X77533500Y-113665000D02*
X78676500Y-114808000D01*
X90297000Y-91567000D02*
X90297000Y-91440000D01*
X90297000Y-95123000D02*
X90297000Y-93345000D01*
X90297000Y-100076000D02*
X90297000Y-97409000D01*
X77470000Y-113665000D02*
X77533500Y-113665000D01*
X122682000Y-73914000D02*
X122682000Y-66675000D01*
X77851000Y-70739000D02*
X74803000Y-70739000D01*
X74676000Y-74549000D02*
X74676000Y-77851000D01*
X74676000Y-92964000D02*
X74676000Y-96012000D01*
X74676000Y-87376000D02*
X74676000Y-90297000D01*
X109855000Y-91440000D02*
X111760000Y-93345000D01*
X106680000Y-88265000D02*
X107950000Y-89535000D01*
X109220000Y-129420000D02*
X109100000Y-129420000D01*
X109100000Y-129420000D02*
X107315000Y-127635000D01*
X103505000Y-121920000D02*
X103505000Y-116205000D01*
X103505000Y-110490000D02*
X103505000Y-104775000D01*
X107315000Y-101600000D02*
X107950000Y-100965000D01*
X107950000Y-100965000D02*
X107950000Y-96520000D01*
X102870000Y-97155000D02*
X101600000Y-95885000D01*
X101600000Y-95885000D02*
X100965000Y-95885000D01*
X98425000Y-94615000D02*
X99695000Y-93345000D01*
X99695000Y-93345000D02*
X100965000Y-93345000D01*
X116205000Y-91948000D02*
X116205000Y-95250000D01*
X115951000Y-91694000D02*
X116205000Y-91948000D01*
X112141000Y-87757000D02*
X113919000Y-89535000D01*
X112268000Y-63373000D02*
X112268000Y-61722000D01*
X112141000Y-63500000D02*
X112268000Y-63373000D01*
X112141000Y-66294000D02*
X112141000Y-63500000D01*
X112141000Y-73787000D02*
X112141000Y-69596000D01*
X112014000Y-73914000D02*
X112141000Y-73787000D01*
X110617000Y-75946000D02*
X110617000Y-75819000D01*
X108966000Y-77597000D02*
X110617000Y-75946000D01*
X107442000Y-62706000D02*
X107347000Y-62706000D01*
X107347000Y-62706000D02*
X105664000Y-64389000D01*
X102997000Y-67183000D02*
X102997000Y-70231000D01*
X101981000Y-72390000D02*
X102108000Y-72517000D01*
X102108000Y-72517000D02*
X103759000Y-72517000D01*
X118364000Y-34544000D02*
X120269000Y-36449000D01*
X107188000Y-34544000D02*
X113538000Y-34544000D01*
X94234000Y-34544000D02*
X100838000Y-34544000D01*
X82296000Y-34544000D02*
X88646000Y-34544000D01*
X77470000Y-113665000D02*
X77470000Y-113792000D01*
X86360000Y-39370000D02*
X85090000Y-38100000D01*
X74930000Y-57150000D02*
X74930000Y-59690000D01*
X74930000Y-52070000D02*
X74930000Y-54610000D01*
X74930000Y-46863000D02*
X74930000Y-49530000D01*
X76200000Y-43180000D02*
X74930000Y-44704000D01*
X76200000Y-38100000D02*
X76200000Y-40640000D01*
X82550000Y-35560000D02*
X78740000Y-35560000D01*
X85090000Y-38100000D02*
X82550000Y-35560000D01*
X96786700Y-84378800D02*
X96786700Y-82778600D01*
X97701100Y-85064600D02*
X97701100Y-87122000D01*
X97713800Y-82740500D02*
X97713800Y-84302600D01*
X97701100Y-82727800D02*
X97713800Y-82740500D01*
X96824800Y-81051400D02*
X97713800Y-81051400D01*
X96799400Y-81076800D02*
X96824800Y-81051400D01*
X96786700Y-82778600D02*
X96862900Y-82702400D01*
X105625900Y-75641200D02*
X105625900Y-74510900D01*
X105613200Y-75653900D02*
X105625900Y-75641200D01*
X105537000Y-93611700D02*
X105537000Y-95186500D01*
X105473500Y-93548200D02*
X105537000Y-93611700D01*
X96761300Y-84404200D02*
X96761300Y-84988400D01*
X96786700Y-84378800D02*
X96761300Y-84404200D01*
X89928700Y-85420200D02*
X88315800Y-85420200D01*
X89992200Y-85483700D02*
X89928700Y-85420200D01*
X92913200Y-84582000D02*
X91655900Y-84582000D01*
X92938600Y-84556600D02*
X92913200Y-84582000D01*
D22*
X101803200Y-91668600D02*
X101803200Y-91694000D01*
X101155500Y-91020900D02*
X101803200Y-91668600D01*
X101173280Y-89362280D02*
X101180900Y-90131900D01*
X101180900Y-77012800D02*
X101180900Y-76276200D01*
X101180900Y-78790800D02*
X101180900Y-77952600D01*
D23*
X120650000Y-125730000D02*
X120650000Y-125704600D01*
X120650000Y-125704600D02*
X118897400Y-123952000D01*
X120650000Y-125730000D02*
X120650000Y-125742700D01*
X120650000Y-125742700D02*
X122301000Y-127393700D01*
X120650000Y-125742700D02*
X119024400Y-127368300D01*
X120650000Y-125704600D02*
X122466100Y-123888500D01*
D21*
X74676000Y-77851000D02*
X78105000Y-77851000D01*
X78105000Y-77851000D02*
X78232000Y-77724000D01*
X78232000Y-77724000D02*
X78994000Y-77724000D01*
D24*
G04 #@! TO.N,12V*
X77470000Y-46355000D02*
X77470000Y-45402500D01*
X77470000Y-45402500D02*
X80137000Y-42735500D01*
X80137000Y-42735500D02*
X91567000Y-42735500D01*
X91567000Y-42735500D02*
X105219500Y-56388000D01*
X105219500Y-56388000D02*
X108204000Y-56388000D01*
D21*
X94742000Y-92456000D02*
X83439000Y-92456000D01*
X83439000Y-92456000D02*
X80645000Y-95250000D01*
D24*
X94742000Y-75184000D02*
X96012000Y-75184000D01*
X98742500Y-91757500D02*
X98298000Y-92202000D01*
X98742500Y-77914500D02*
X98742500Y-91757500D01*
X96012000Y-75184000D02*
X98742500Y-77914500D01*
X98298000Y-92202000D02*
X98044000Y-92456000D01*
X94742000Y-92456000D02*
X98044000Y-92456000D01*
G04 #@! TO.N,Net-(C16-Pad1)*
X101028500Y-82486500D02*
X102997000Y-82486500D01*
X103314500Y-82169000D02*
X106616500Y-82169000D01*
X102997000Y-82486500D02*
X103314500Y-82169000D01*
X103886000Y-82486500D02*
X107505500Y-82486500D01*
D23*
X120015000Y-55840000D02*
X120015000Y-56896000D01*
X120015000Y-56896000D02*
X114173000Y-62738000D01*
X114173000Y-62738000D02*
X114173000Y-75819000D01*
X114173000Y-75819000D02*
X107505500Y-82486500D01*
X106870500Y-83121500D02*
X105740200Y-83129120D01*
X107505500Y-82486500D02*
X106870500Y-83121500D01*
X100330000Y-82486500D02*
X103886000Y-82486500D01*
X103886000Y-82486500D02*
X104394000Y-82486500D01*
X104394000Y-82486500D02*
X105029000Y-83121500D01*
X100324920Y-83185000D02*
X105740200Y-83129120D01*
D24*
X120015000Y-55840000D02*
X119928000Y-55840000D01*
D23*
X119928000Y-55840000D02*
X113538000Y-62230000D01*
X113538000Y-75247500D02*
X106616500Y-82169000D01*
X113538000Y-62230000D02*
X113538000Y-75247500D01*
X106616500Y-82169000D02*
X105740200Y-83129120D01*
D24*
G04 #@! TO.N,Net-(C17-Pad2)*
X106584750Y-85947250D02*
X101316790Y-86010750D01*
X101316790Y-86010750D02*
X101031040Y-85725000D01*
X104394000Y-85661500D02*
X107505500Y-85661500D01*
D23*
X120015000Y-111800000D02*
X120015000Y-111125000D01*
X120015000Y-111125000D02*
X114300000Y-105410000D01*
X114300000Y-105410000D02*
X114300000Y-92456000D01*
X114300000Y-92456000D02*
X107505500Y-85661500D01*
X106870500Y-85026500D02*
X105745280Y-85034120D01*
X107505500Y-85661500D02*
X106870500Y-85026500D01*
X100324920Y-85725000D02*
X104394000Y-85661500D01*
X104394000Y-85661500D02*
X105029000Y-85026500D01*
X100330000Y-85026500D02*
X105745280Y-85034120D01*
X105745280Y-85034120D02*
X106584750Y-85947250D01*
X106584750Y-85947250D02*
X113538000Y-92900500D01*
X113538000Y-92900500D02*
X113538000Y-105323000D01*
X113538000Y-105323000D02*
X120015000Y-111800000D01*
G04 #@! TO.N,Net-(C18-Pad1)*
X101028500Y-79946500D02*
X102933500Y-79946500D01*
X102933500Y-79946500D02*
X104394000Y-78486000D01*
X120015000Y-50840000D02*
X119467000Y-50840000D01*
X119467000Y-50840000D02*
X110109000Y-60198000D01*
X110109000Y-60198000D02*
X110109000Y-72771000D01*
X110109000Y-72771000D02*
X104394000Y-78486000D01*
X104394000Y-78486000D02*
X104394000Y-79629000D01*
X105029000Y-78994000D02*
X106553000Y-77470000D01*
X110680500Y-73342500D02*
X106553000Y-77470000D01*
X100330000Y-80650000D02*
X103441500Y-80581500D01*
X103441500Y-80581500D02*
X104394000Y-79629000D01*
X100330000Y-79946500D02*
X104076500Y-79946500D01*
X104076500Y-79946500D02*
X105029000Y-78994000D01*
X110680500Y-72263000D02*
X110680500Y-73342500D01*
X110680500Y-60174500D02*
X120015000Y-50840000D01*
X110680500Y-72263000D02*
X110680500Y-60174500D01*
D24*
G04 #@! TO.N,Net-(C19-Pad2)*
X104330500Y-88201500D02*
X104711500Y-88201500D01*
X111696500Y-95186500D02*
X111696500Y-108013500D01*
X104711500Y-88201500D02*
X111696500Y-95186500D01*
D23*
X120015000Y-116800000D02*
X119340000Y-116800000D01*
X119340000Y-116800000D02*
X110617000Y-108077000D01*
X110617000Y-106426000D02*
X110680500Y-106426000D01*
X110617000Y-108077000D02*
X110617000Y-106426000D01*
X101020880Y-88270080D02*
X103251000Y-88201500D01*
X103251000Y-88201500D02*
X110680500Y-95631000D01*
X120015000Y-116800000D02*
X120015000Y-116332000D01*
X120015000Y-116332000D02*
X111696500Y-108013500D01*
X111696500Y-108013500D02*
X111379000Y-107696000D01*
X111379000Y-107696000D02*
X111379000Y-95504000D01*
X111379000Y-95504000D02*
X110680500Y-94805500D01*
X100330000Y-87566500D02*
X103695500Y-87566500D01*
X103695500Y-87566500D02*
X104330500Y-88201500D01*
X100330000Y-88270080D02*
X104076500Y-88201500D01*
X104076500Y-88201500D02*
X104902000Y-89027000D01*
X110680500Y-95631000D02*
X110680500Y-94805500D01*
X110680500Y-94805500D02*
X104902000Y-89027000D01*
X110680500Y-107465500D02*
X120015000Y-116800000D01*
X110680500Y-95631000D02*
X110680500Y-106426000D01*
X110680500Y-106426000D02*
X110680500Y-107465500D01*
G04 #@! TO.N,VDD*
X107569000Y-105537000D02*
X107569000Y-119697500D01*
X108585000Y-120713500D02*
X108585000Y-121285000D01*
X107569000Y-119697500D02*
X108585000Y-120713500D01*
X107219750Y-105886250D02*
X107569000Y-105537000D01*
X107569000Y-105537000D02*
X106235500Y-106870500D01*
X107950000Y-121412000D02*
X107950000Y-121158000D01*
X106235500Y-119697500D02*
X107950000Y-121412000D01*
X106235500Y-106870500D02*
X106235500Y-119697500D01*
D24*
X109220000Y-121920000D02*
X108712000Y-121920000D01*
X108712000Y-121920000D02*
X107950000Y-121158000D01*
X107950000Y-121158000D02*
X106489500Y-119697500D01*
X106489500Y-119697500D02*
X106489500Y-118554500D01*
X106489500Y-118554500D02*
X106807000Y-118554500D01*
X108775500Y-104584500D02*
X108775500Y-105156000D01*
X108775500Y-105156000D02*
X107124500Y-106807000D01*
X107124500Y-106807000D02*
X107124500Y-119824500D01*
D23*
X108775500Y-104584500D02*
X108521500Y-104584500D01*
X108521500Y-104584500D02*
X107219750Y-105886250D01*
X107219750Y-105886250D02*
X106807000Y-106299000D01*
X106807000Y-119507000D02*
X107124500Y-119824500D01*
X107124500Y-119824500D02*
X108585000Y-121285000D01*
X108585000Y-121285000D02*
X109220000Y-121920000D01*
X106807000Y-106299000D02*
X106807000Y-118554500D01*
X106807000Y-118554500D02*
X106807000Y-119507000D01*
X120015000Y-41910000D02*
X120015000Y-43180000D01*
X120015000Y-43180000D02*
X117348000Y-45847000D01*
X111252000Y-45847000D02*
X110490000Y-45085000D01*
X117348000Y-45847000D02*
X111252000Y-45847000D01*
X120015000Y-41910000D02*
X118872000Y-41910000D01*
X118872000Y-41910000D02*
X116586000Y-44196000D01*
X111379000Y-44196000D02*
X110490000Y-45085000D01*
X116586000Y-44196000D02*
X111379000Y-44196000D01*
X120015000Y-41910000D02*
X120015000Y-42799000D01*
X109220000Y-45085000D02*
X110490000Y-45085000D01*
X110490000Y-45085000D02*
X116840000Y-45085000D01*
X116840000Y-45085000D02*
X120015000Y-41910000D01*
D21*
G04 #@! TO.N,FAULT*
X78676500Y-78676500D02*
X78676500Y-87185500D01*
X78676500Y-87185500D02*
X78994000Y-87503000D01*
X97536000Y-88900000D02*
X80391000Y-88900000D01*
X80391000Y-88900000D02*
X78994000Y-87503000D01*
G04 #@! TO.N,CLIP*
X78359000Y-89535000D02*
X78359000Y-88900000D01*
X79629000Y-90805000D02*
X78359000Y-89535000D01*
X97028000Y-90805000D02*
X79629000Y-90805000D01*
G04 #@! TO.N,+3V3*
X78422500Y-101219000D02*
X81788000Y-101219000D01*
X84074000Y-63881000D02*
X80391000Y-67564000D01*
X98679000Y-63881000D02*
X84074000Y-63881000D01*
X92837000Y-101219000D02*
X81788000Y-101219000D01*
X97409000Y-101219000D02*
X92837000Y-101219000D01*
X97536000Y-101346000D02*
X97409000Y-101219000D01*
X80391000Y-78486000D02*
X80137000Y-78740000D01*
X80391000Y-67564000D02*
X80391000Y-78486000D01*
G04 #@! TD*
D22*
G04 #@! TO.N,GND*
G36*
X120801281Y-33700732D02*
X121340289Y-35049045D01*
X121391545Y-35125756D01*
X121838315Y-35500263D01*
X122568723Y-34769855D01*
X122710145Y-34911277D01*
X121979737Y-35641685D01*
X122354244Y-36088455D01*
X123688783Y-36660720D01*
X124035001Y-36665012D01*
X124035000Y-130964451D01*
X123779268Y-130961281D01*
X122430955Y-131500289D01*
X122354244Y-131551545D01*
X121979737Y-131998315D01*
X122695059Y-132713638D01*
X122552340Y-132853762D01*
X121838315Y-132139737D01*
X121391545Y-132514244D01*
X120819280Y-133848783D01*
X120814988Y-134195000D01*
X77315549Y-134195000D01*
X77318719Y-133939268D01*
X76779711Y-132590955D01*
X76728455Y-132514244D01*
X76281685Y-132139737D01*
X75566362Y-132855059D01*
X75426238Y-132712340D01*
X76140263Y-131998315D01*
X75765756Y-131551545D01*
X74431217Y-130979280D01*
X74085000Y-130974988D01*
X74085000Y-130273124D01*
X108508298Y-130273124D01*
X108584147Y-130465307D01*
X109032571Y-130629068D01*
X109509528Y-130608760D01*
X109855853Y-130465307D01*
X109931702Y-130273124D01*
X109220000Y-129561421D01*
X108508298Y-130273124D01*
X74085000Y-130273124D01*
X74085000Y-129232571D01*
X108010932Y-129232571D01*
X108031240Y-129709528D01*
X108174693Y-130055853D01*
X108366876Y-130131702D01*
X109078579Y-129420000D01*
X109361421Y-129420000D01*
X110073124Y-130131702D01*
X110265307Y-130055853D01*
X110429068Y-129607429D01*
X110408760Y-129130472D01*
X110265307Y-128784147D01*
X110073124Y-128708298D01*
X109361421Y-129420000D01*
X109078579Y-129420000D01*
X108366876Y-128708298D01*
X108174693Y-128784147D01*
X108010932Y-129232571D01*
X74085000Y-129232571D01*
X74085000Y-128566876D01*
X108508298Y-128566876D01*
X109220000Y-129278579D01*
X109931702Y-128566876D01*
X109855853Y-128374693D01*
X109407429Y-128210932D01*
X108930472Y-128231240D01*
X108584147Y-128374693D01*
X108508298Y-128566876D01*
X74085000Y-128566876D01*
X74085000Y-127125146D01*
X119396275Y-127125146D01*
X119563745Y-127395233D01*
X120283688Y-127684167D01*
X121059399Y-127675596D01*
X121736255Y-127395233D01*
X121903725Y-127125146D01*
X120650000Y-125871421D01*
X119396275Y-127125146D01*
X74085000Y-127125146D01*
X74085000Y-125363688D01*
X118695833Y-125363688D01*
X118704404Y-126139399D01*
X118984767Y-126816255D01*
X119254854Y-126983725D01*
X120508579Y-125730000D01*
X120791421Y-125730000D01*
X122045146Y-126983725D01*
X122315233Y-126816255D01*
X122604167Y-126096312D01*
X122595596Y-125320601D01*
X122315233Y-124643745D01*
X122045146Y-124476275D01*
X120791421Y-125730000D01*
X120508579Y-125730000D01*
X119254854Y-124476275D01*
X118984767Y-124643745D01*
X118695833Y-125363688D01*
X74085000Y-125363688D01*
X74085000Y-124334854D01*
X119396275Y-124334854D01*
X120650000Y-125588579D01*
X121903725Y-124334854D01*
X121736255Y-124064767D01*
X121016312Y-123775833D01*
X120240601Y-123784404D01*
X119563745Y-124064767D01*
X119396275Y-124334854D01*
X74085000Y-124334854D01*
X74085000Y-115986196D01*
X76370000Y-115986196D01*
X76370000Y-116423804D01*
X76537465Y-116828100D01*
X76846900Y-117137535D01*
X77251196Y-117305000D01*
X77688804Y-117305000D01*
X78093100Y-117137535D01*
X78402535Y-116828100D01*
X78570000Y-116423804D01*
X78570000Y-115986196D01*
X78402535Y-115581900D01*
X78093100Y-115272465D01*
X77688804Y-115105000D01*
X77251196Y-115105000D01*
X76846900Y-115272465D01*
X76537465Y-115581900D01*
X76370000Y-115986196D01*
X74085000Y-115986196D01*
X74085000Y-114518124D01*
X76758298Y-114518124D01*
X76834147Y-114710307D01*
X77282571Y-114874068D01*
X77759528Y-114853760D01*
X78105853Y-114710307D01*
X78181702Y-114518124D01*
X77470000Y-113806421D01*
X76758298Y-114518124D01*
X74085000Y-114518124D01*
X74085000Y-113477571D01*
X76260932Y-113477571D01*
X76281240Y-113954528D01*
X76424693Y-114300853D01*
X76616876Y-114376702D01*
X77328579Y-113665000D01*
X77611421Y-113665000D01*
X78323124Y-114376702D01*
X78515307Y-114300853D01*
X78679068Y-113852429D01*
X78658760Y-113375472D01*
X78515307Y-113029147D01*
X78323124Y-112953298D01*
X77611421Y-113665000D01*
X77328579Y-113665000D01*
X76616876Y-112953298D01*
X76424693Y-113029147D01*
X76260932Y-113477571D01*
X74085000Y-113477571D01*
X74085000Y-112811876D01*
X76758298Y-112811876D01*
X77470000Y-113523579D01*
X78181702Y-112811876D01*
X78105853Y-112619693D01*
X77657429Y-112455932D01*
X77180472Y-112476240D01*
X76834147Y-112619693D01*
X76758298Y-112811876D01*
X74085000Y-112811876D01*
X74085000Y-110375000D01*
X76363144Y-110375000D01*
X76363144Y-111875000D01*
X76390308Y-112011563D01*
X76467665Y-112127335D01*
X76583437Y-112204692D01*
X76720000Y-112231856D01*
X78220000Y-112231856D01*
X78356563Y-112204692D01*
X78472335Y-112127335D01*
X78549692Y-112011563D01*
X78576856Y-111875000D01*
X78576856Y-110375000D01*
X78549692Y-110238437D01*
X78472335Y-110122665D01*
X78356563Y-110045308D01*
X78220000Y-110018144D01*
X76720000Y-110018144D01*
X76583437Y-110045308D01*
X76467665Y-110122665D01*
X76390308Y-110238437D01*
X76363144Y-110375000D01*
X74085000Y-110375000D01*
X74085000Y-104429196D01*
X94404000Y-104429196D01*
X94404000Y-104866804D01*
X94571465Y-105271100D01*
X94880900Y-105580535D01*
X95285196Y-105748000D01*
X95722804Y-105748000D01*
X96127100Y-105580535D01*
X96436535Y-105271100D01*
X96604000Y-104866804D01*
X96604000Y-104429196D01*
X96436535Y-104024900D01*
X96127100Y-103715465D01*
X95722804Y-103548000D01*
X95285196Y-103548000D01*
X94880900Y-103715465D01*
X94571465Y-104024900D01*
X94404000Y-104429196D01*
X74085000Y-104429196D01*
X74085000Y-101079761D01*
X77722500Y-101079761D01*
X77722500Y-101358239D01*
X77829068Y-101615518D01*
X78025982Y-101812432D01*
X78283261Y-101919000D01*
X78561739Y-101919000D01*
X78819018Y-101812432D01*
X78937450Y-101694000D01*
X81273050Y-101694000D01*
X81391482Y-101812432D01*
X81648761Y-101919000D01*
X81927239Y-101919000D01*
X82184518Y-101812432D01*
X82302950Y-101694000D01*
X96922471Y-101694000D01*
X96942568Y-101742518D01*
X97139482Y-101939432D01*
X97396761Y-102046000D01*
X97675239Y-102046000D01*
X97932518Y-101939432D01*
X98129432Y-101742518D01*
X98236000Y-101485239D01*
X98236000Y-101206761D01*
X98129432Y-100949482D01*
X97932518Y-100752568D01*
X97675239Y-100646000D01*
X97396761Y-100646000D01*
X97160167Y-100744000D01*
X82302950Y-100744000D01*
X82184518Y-100625568D01*
X81927239Y-100519000D01*
X81648761Y-100519000D01*
X81391482Y-100625568D01*
X81273050Y-100744000D01*
X78937450Y-100744000D01*
X78819018Y-100625568D01*
X78561739Y-100519000D01*
X78283261Y-100519000D01*
X78025982Y-100625568D01*
X77829068Y-100822482D01*
X77722500Y-101079761D01*
X74085000Y-101079761D01*
X74085000Y-88760761D01*
X77659000Y-88760761D01*
X77659000Y-89039239D01*
X77765568Y-89296518D01*
X77884000Y-89414950D01*
X77884000Y-89488226D01*
X77874696Y-89535000D01*
X77884000Y-89581774D01*
X77884000Y-89581778D01*
X77911561Y-89720334D01*
X78016545Y-89877455D01*
X78056204Y-89903955D01*
X79260049Y-91107801D01*
X79286545Y-91147455D01*
X79326199Y-91173951D01*
X79326201Y-91173953D01*
X79367456Y-91201518D01*
X79443665Y-91252439D01*
X79582221Y-91280000D01*
X79582225Y-91280000D01*
X79628999Y-91289304D01*
X79675773Y-91280000D01*
X96513050Y-91280000D01*
X96631482Y-91398432D01*
X96888761Y-91505000D01*
X97167239Y-91505000D01*
X97424518Y-91398432D01*
X97621432Y-91201518D01*
X97728000Y-90944239D01*
X97728000Y-90665761D01*
X97621432Y-90408482D01*
X97424518Y-90211568D01*
X97167239Y-90105000D01*
X96888761Y-90105000D01*
X96631482Y-90211568D01*
X96513050Y-90330000D01*
X79825752Y-90330000D01*
X78872350Y-89376600D01*
X78952432Y-89296518D01*
X79059000Y-89039239D01*
X79059000Y-88760761D01*
X78952432Y-88503482D01*
X78755518Y-88306568D01*
X78498239Y-88200000D01*
X78219761Y-88200000D01*
X77962482Y-88306568D01*
X77765568Y-88503482D01*
X77659000Y-88760761D01*
X74085000Y-88760761D01*
X74085000Y-78537261D01*
X77976500Y-78537261D01*
X77976500Y-78815739D01*
X78083068Y-79073018D01*
X78201500Y-79191450D01*
X78201501Y-87138721D01*
X78192196Y-87185500D01*
X78229062Y-87370835D01*
X78299066Y-87475603D01*
X78334046Y-87527955D01*
X78373702Y-87554452D01*
X78691202Y-87871953D01*
X78691205Y-87871955D01*
X80022049Y-89202801D01*
X80048545Y-89242455D01*
X80088199Y-89268951D01*
X80088201Y-89268953D01*
X80129456Y-89296518D01*
X80205665Y-89347439D01*
X80344221Y-89375000D01*
X80344225Y-89375000D01*
X80390999Y-89384304D01*
X80437773Y-89375000D01*
X97021050Y-89375000D01*
X97139482Y-89493432D01*
X97396761Y-89600000D01*
X97675239Y-89600000D01*
X97932518Y-89493432D01*
X98129432Y-89296518D01*
X98192501Y-89144256D01*
X98192501Y-91529682D01*
X97947396Y-91774788D01*
X97816184Y-91906000D01*
X95181950Y-91906000D01*
X95138518Y-91862568D01*
X94881239Y-91756000D01*
X94602761Y-91756000D01*
X94345482Y-91862568D01*
X94227050Y-91981000D01*
X83485775Y-91981000D01*
X83439000Y-91971696D01*
X83392225Y-91981000D01*
X83392221Y-91981000D01*
X83282272Y-92002871D01*
X83253664Y-92008561D01*
X83215820Y-92033848D01*
X83096545Y-92113545D01*
X83070047Y-92153202D01*
X80673250Y-94550000D01*
X80505761Y-94550000D01*
X80248482Y-94656568D01*
X80051568Y-94853482D01*
X79945000Y-95110761D01*
X79945000Y-95389239D01*
X80051568Y-95646518D01*
X80248482Y-95843432D01*
X80505761Y-95950000D01*
X80784239Y-95950000D01*
X81041518Y-95843432D01*
X81238432Y-95646518D01*
X81345000Y-95389239D01*
X81345000Y-95221750D01*
X83635751Y-92931000D01*
X94227050Y-92931000D01*
X94345482Y-93049432D01*
X94602761Y-93156000D01*
X94881239Y-93156000D01*
X95138518Y-93049432D01*
X95181950Y-93006000D01*
X97989831Y-93006000D01*
X98044000Y-93016775D01*
X98098169Y-93006000D01*
X98098170Y-93006000D01*
X98258599Y-92974089D01*
X98440528Y-92852528D01*
X98471216Y-92806600D01*
X98725212Y-92552604D01*
X99093102Y-92184715D01*
X99139028Y-92154028D01*
X99260589Y-91972099D01*
X99292500Y-91811670D01*
X99292500Y-91811669D01*
X99303275Y-91757500D01*
X99292500Y-91703331D01*
X99292500Y-87566500D01*
X99463348Y-87566500D01*
X99529318Y-87898153D01*
X99544294Y-87920566D01*
X99523383Y-87953137D01*
X99463494Y-88285941D01*
X99535523Y-88616331D01*
X99728503Y-88894009D01*
X100013057Y-89076697D01*
X100261856Y-89121469D01*
X100889873Y-89109973D01*
X100963332Y-89122251D01*
X102057810Y-89088594D01*
X102920226Y-89072808D01*
X109830500Y-95983082D01*
X109830501Y-104257058D01*
X109708035Y-103961400D01*
X109398600Y-103651965D01*
X108994304Y-103484500D01*
X108556696Y-103484500D01*
X108152400Y-103651965D01*
X107842965Y-103961400D01*
X107772570Y-104131349D01*
X107027158Y-104876761D01*
X106956184Y-104924184D01*
X106908763Y-104995155D01*
X106265157Y-105638762D01*
X106194184Y-105686184D01*
X106146762Y-105757156D01*
X105693658Y-106210261D01*
X105622684Y-106257684D01*
X105434818Y-106538848D01*
X105392254Y-106752830D01*
X105368848Y-106870500D01*
X105385500Y-106954214D01*
X105385501Y-119613781D01*
X105368848Y-119697500D01*
X105396926Y-119838653D01*
X105434819Y-120029153D01*
X105622685Y-120310316D01*
X105693656Y-120357737D01*
X107289763Y-121953845D01*
X107337184Y-122024816D01*
X107618347Y-122212682D01*
X107884029Y-122265530D01*
X107949999Y-122278652D01*
X107950000Y-122278652D01*
X108113144Y-122246200D01*
X108113144Y-122670000D01*
X108140308Y-122806563D01*
X108217665Y-122922335D01*
X108333437Y-122999692D01*
X108470000Y-123026856D01*
X109970000Y-123026856D01*
X110106563Y-122999692D01*
X110222335Y-122922335D01*
X110299692Y-122806563D01*
X110326856Y-122670000D01*
X110326856Y-121170000D01*
X110299692Y-121033437D01*
X110222335Y-120917665D01*
X110106563Y-120840308D01*
X109970000Y-120813144D01*
X109435000Y-120813144D01*
X109435000Y-120797214D01*
X109451652Y-120713500D01*
X109428523Y-120597225D01*
X109385682Y-120381847D01*
X109197816Y-120100684D01*
X109126845Y-120053263D01*
X108419000Y-119345419D01*
X108419000Y-106290317D01*
X109046393Y-105662924D01*
X109398600Y-105517035D01*
X109708035Y-105207600D01*
X109830501Y-104911941D01*
X109830501Y-106073121D01*
X109816318Y-106094347D01*
X109750348Y-106426000D01*
X109767001Y-106509720D01*
X109767000Y-107993286D01*
X109750348Y-108077000D01*
X109767000Y-108160714D01*
X109816318Y-108408652D01*
X110004184Y-108689816D01*
X110075158Y-108737239D01*
X118165000Y-116827082D01*
X118165000Y-117207988D01*
X118446645Y-117887941D01*
X118967059Y-118408355D01*
X119647012Y-118690000D01*
X120382988Y-118690000D01*
X121062941Y-118408355D01*
X121583355Y-117887941D01*
X121865000Y-117207988D01*
X121865000Y-116472012D01*
X121583355Y-115792059D01*
X121062941Y-115271645D01*
X120382988Y-114990000D01*
X119875081Y-114990000D01*
X112246500Y-107361419D01*
X112246500Y-95240669D01*
X112257275Y-95186500D01*
X112246500Y-95132330D01*
X112214589Y-94971901D01*
X112093028Y-94789972D01*
X112047103Y-94759286D01*
X105138716Y-87850900D01*
X105108028Y-87804972D01*
X105071547Y-87780596D01*
X104990736Y-87659654D01*
X104355739Y-87024658D01*
X104308316Y-86953684D01*
X104027153Y-86765818D01*
X103779215Y-86716500D01*
X103779214Y-86716500D01*
X103695500Y-86699848D01*
X103611786Y-86716500D01*
X100246285Y-86716500D01*
X99998347Y-86765818D01*
X99717184Y-86953684D01*
X99529318Y-87234847D01*
X99463348Y-87566500D01*
X99292500Y-87566500D01*
X99292500Y-85738522D01*
X99458374Y-85738522D01*
X99529511Y-86069106D01*
X99721741Y-86347303D01*
X100005801Y-86530759D01*
X100254479Y-86576202D01*
X101261314Y-86560490D01*
X101316790Y-86571525D01*
X101374245Y-86560096D01*
X104372882Y-86523951D01*
X104394000Y-86528152D01*
X104417842Y-86523409D01*
X105940475Y-86505056D01*
X105971075Y-86535656D01*
X106015657Y-86584150D01*
X106030185Y-86594766D01*
X112688000Y-93252581D01*
X112688001Y-105239281D01*
X112671348Y-105323000D01*
X112721674Y-105576000D01*
X112737319Y-105654653D01*
X112925185Y-105935816D01*
X112996156Y-105983237D01*
X118165000Y-111152082D01*
X118165000Y-111492988D01*
X118446645Y-112172941D01*
X118967059Y-112693355D01*
X119647012Y-112975000D01*
X120382988Y-112975000D01*
X121062941Y-112693355D01*
X121583355Y-112172941D01*
X121865000Y-111492988D01*
X121865000Y-110757012D01*
X121583355Y-110077059D01*
X121062941Y-109556645D01*
X120382988Y-109275000D01*
X119647012Y-109275000D01*
X119449071Y-109356990D01*
X117055989Y-106963908D01*
X117967513Y-106963908D01*
X118268980Y-107348321D01*
X119386655Y-107820611D01*
X120599989Y-107829235D01*
X121724265Y-107372879D01*
X121761020Y-107348321D01*
X122062487Y-106963908D01*
X120015000Y-104916421D01*
X117967513Y-106963908D01*
X117055989Y-106963908D01*
X115452070Y-105359989D01*
X116960765Y-105359989D01*
X117417121Y-106484265D01*
X117441679Y-106521020D01*
X117826092Y-106822487D01*
X119873579Y-104775000D01*
X120156421Y-104775000D01*
X122203908Y-106822487D01*
X122588321Y-106521020D01*
X123060611Y-105403345D01*
X123069235Y-104190011D01*
X122612879Y-103065735D01*
X122588321Y-103028980D01*
X122203908Y-102727513D01*
X120156421Y-104775000D01*
X119873579Y-104775000D01*
X117826092Y-102727513D01*
X117441679Y-103028980D01*
X116969389Y-104146655D01*
X116960765Y-105359989D01*
X115452070Y-105359989D01*
X115150000Y-105057919D01*
X115150000Y-102586092D01*
X117967513Y-102586092D01*
X120015000Y-104633579D01*
X122062487Y-102586092D01*
X121761020Y-102201679D01*
X120643345Y-101729389D01*
X119430011Y-101720765D01*
X118305735Y-102177121D01*
X118268980Y-102201679D01*
X117967513Y-102586092D01*
X115150000Y-102586092D01*
X115150000Y-92539713D01*
X115166652Y-92455999D01*
X115139257Y-92318275D01*
X115100682Y-92124347D01*
X114912816Y-91843184D01*
X114841845Y-91795763D01*
X114267278Y-91221196D01*
X118280000Y-91221196D01*
X118280000Y-91658804D01*
X118447465Y-92063100D01*
X118756900Y-92372535D01*
X119161196Y-92540000D01*
X119598804Y-92540000D01*
X120003100Y-92372535D01*
X120312535Y-92063100D01*
X120480000Y-91658804D01*
X120480000Y-91221196D01*
X120312535Y-90816900D01*
X120003100Y-90507465D01*
X119598804Y-90340000D01*
X119161196Y-90340000D01*
X118756900Y-90507465D01*
X118447465Y-90816900D01*
X118280000Y-91221196D01*
X114267278Y-91221196D01*
X108165738Y-85119657D01*
X108165736Y-85119654D01*
X107528682Y-84482601D01*
X107479152Y-84409549D01*
X107340319Y-84318138D01*
X107202153Y-84225819D01*
X107199221Y-84225236D01*
X107196723Y-84223591D01*
X107033505Y-84192272D01*
X106870500Y-84159848D01*
X106783935Y-84177067D01*
X105844225Y-84183431D01*
X105781672Y-84168232D01*
X105680147Y-84184028D01*
X105146788Y-84183277D01*
X105029000Y-84159848D01*
X104912867Y-84182948D01*
X100247482Y-84176384D01*
X99999474Y-84225353D01*
X99718047Y-84412823D01*
X99529786Y-84693721D01*
X99463349Y-85025281D01*
X99528853Y-85357026D01*
X99539952Y-85373688D01*
X99519161Y-85405881D01*
X99458374Y-85738522D01*
X99292500Y-85738522D01*
X99292500Y-83193942D01*
X99458315Y-83193942D01*
X99527703Y-83524897D01*
X99718460Y-83804106D01*
X100001547Y-83989061D01*
X100249981Y-84035818D01*
X105021120Y-83986585D01*
X105029000Y-83988152D01*
X105037743Y-83986413D01*
X105680373Y-83979782D01*
X105779715Y-83994871D01*
X105846358Y-83978424D01*
X106789623Y-83972064D01*
X106870500Y-83988152D01*
X106957052Y-83970935D01*
X106959943Y-83970916D01*
X107039122Y-83954610D01*
X107202153Y-83922181D01*
X107204628Y-83920527D01*
X107207543Y-83919927D01*
X107345108Y-83826662D01*
X107412345Y-83781736D01*
X107414390Y-83779691D01*
X107487433Y-83730170D01*
X107532782Y-83661299D01*
X108165736Y-83028346D01*
X108165738Y-83028343D01*
X114714845Y-76479237D01*
X114785816Y-76431816D01*
X114973682Y-76150653D01*
X115023000Y-75902715D01*
X115023000Y-75902714D01*
X115039652Y-75819000D01*
X115023000Y-75735286D01*
X115023000Y-74711196D01*
X118280000Y-74711196D01*
X118280000Y-75148804D01*
X118447465Y-75553100D01*
X118756900Y-75862535D01*
X119161196Y-76030000D01*
X119598804Y-76030000D01*
X120003100Y-75862535D01*
X120312535Y-75553100D01*
X120480000Y-75148804D01*
X120480000Y-74711196D01*
X120312535Y-74306900D01*
X120003100Y-73997465D01*
X119598804Y-73830000D01*
X119161196Y-73830000D01*
X118756900Y-73997465D01*
X118447465Y-74306900D01*
X118280000Y-74711196D01*
X115023000Y-74711196D01*
X115023000Y-63090081D01*
X115720885Y-62392196D01*
X116248000Y-62392196D01*
X116248000Y-62829804D01*
X116415465Y-63234100D01*
X116724900Y-63543535D01*
X117129196Y-63711000D01*
X117566804Y-63711000D01*
X117971100Y-63543535D01*
X118280535Y-63234100D01*
X118448000Y-62829804D01*
X118448000Y-62392196D01*
X118280535Y-61987900D01*
X117971100Y-61678465D01*
X117566804Y-61511000D01*
X117129196Y-61511000D01*
X116724900Y-61678465D01*
X116415465Y-61987900D01*
X116248000Y-62392196D01*
X115720885Y-62392196D01*
X119748082Y-58365000D01*
X120382988Y-58365000D01*
X121062941Y-58083355D01*
X121583355Y-57562941D01*
X121865000Y-56882988D01*
X121865000Y-56147012D01*
X121583355Y-55467059D01*
X121062941Y-54946645D01*
X120382988Y-54665000D01*
X119647012Y-54665000D01*
X118967059Y-54946645D01*
X118446645Y-55467059D01*
X118165000Y-56147012D01*
X118165000Y-56400918D01*
X112996158Y-61569761D01*
X112925184Y-61617184D01*
X112737318Y-61898348D01*
X112691180Y-62130297D01*
X112671348Y-62230000D01*
X112688000Y-62313714D01*
X112688001Y-74895417D01*
X106060843Y-81522576D01*
X106045114Y-81534157D01*
X106001749Y-81581670D01*
X105964419Y-81619000D01*
X103368669Y-81619000D01*
X103314500Y-81608225D01*
X103260331Y-81619000D01*
X103260330Y-81619000D01*
X103172351Y-81636500D01*
X100246285Y-81636500D01*
X99998347Y-81685818D01*
X99717184Y-81873684D01*
X99529318Y-82154847D01*
X99463348Y-82486500D01*
X99529318Y-82818153D01*
X99539402Y-82833245D01*
X99520859Y-82861627D01*
X99458315Y-83193942D01*
X99292500Y-83193942D01*
X99292500Y-79946500D01*
X99463348Y-79946500D01*
X99529318Y-80278153D01*
X99544558Y-80300961D01*
X99522213Y-80336051D01*
X99463558Y-80669074D01*
X99536812Y-80999195D01*
X99730821Y-81276155D01*
X100016051Y-81457787D01*
X100265014Y-81501636D01*
X103367058Y-81433344D01*
X103441500Y-81448152D01*
X103534471Y-81429659D01*
X103543903Y-81429451D01*
X103616501Y-81413342D01*
X103773153Y-81382181D01*
X103781221Y-81376790D01*
X103790695Y-81374688D01*
X103921516Y-81283048D01*
X103983345Y-81241736D01*
X103990017Y-81235064D01*
X104067655Y-81180679D01*
X104108423Y-81116658D01*
X104618342Y-80606739D01*
X104689316Y-80559316D01*
X104736739Y-80488342D01*
X104935842Y-80289239D01*
X105006816Y-80241816D01*
X105054239Y-80170842D01*
X111222342Y-74002739D01*
X111293316Y-73955316D01*
X111481182Y-73674153D01*
X111530500Y-73426215D01*
X111547152Y-73342501D01*
X111530500Y-73258787D01*
X111530500Y-60526581D01*
X119387552Y-52669529D01*
X119647012Y-52777000D01*
X120382988Y-52777000D01*
X121062941Y-52495355D01*
X121583355Y-51974941D01*
X121865000Y-51294988D01*
X121865000Y-50559012D01*
X121583355Y-49879059D01*
X121062941Y-49358645D01*
X120382988Y-49077000D01*
X119647012Y-49077000D01*
X118967059Y-49358645D01*
X118446645Y-49879059D01*
X118165000Y-50559012D01*
X118165000Y-50939919D01*
X109567158Y-59537761D01*
X109496184Y-59585184D01*
X109308318Y-59866348D01*
X109270594Y-60056000D01*
X109242348Y-60198000D01*
X109259000Y-60281714D01*
X109259001Y-72418918D01*
X103852158Y-77825761D01*
X103781184Y-77873184D01*
X103733763Y-77944155D01*
X102581419Y-79096500D01*
X100246285Y-79096500D01*
X99998347Y-79145818D01*
X99717184Y-79333684D01*
X99529318Y-79614847D01*
X99463348Y-79946500D01*
X99292500Y-79946500D01*
X99292500Y-77968668D01*
X99303275Y-77914499D01*
X99285624Y-77825764D01*
X99260589Y-77699901D01*
X99139028Y-77517972D01*
X99093103Y-77487286D01*
X96439216Y-74833400D01*
X96408528Y-74787472D01*
X96226599Y-74665911D01*
X96066170Y-74634000D01*
X96066169Y-74634000D01*
X96012000Y-74623225D01*
X95957831Y-74634000D01*
X95181950Y-74634000D01*
X95138518Y-74590568D01*
X94881239Y-74484000D01*
X94602761Y-74484000D01*
X94345482Y-74590568D01*
X94148568Y-74787482D01*
X94042000Y-75044761D01*
X94042000Y-75323239D01*
X94148568Y-75580518D01*
X94345482Y-75777432D01*
X94602761Y-75884000D01*
X94881239Y-75884000D01*
X95138518Y-75777432D01*
X95181950Y-75734000D01*
X95784184Y-75734000D01*
X98192500Y-78142317D01*
X98192501Y-88655744D01*
X98129432Y-88503482D01*
X97932518Y-88306568D01*
X97675239Y-88200000D01*
X97396761Y-88200000D01*
X97139482Y-88306568D01*
X97021050Y-88425000D01*
X80587752Y-88425000D01*
X79362955Y-87200205D01*
X79362953Y-87200202D01*
X79151500Y-86988750D01*
X79151500Y-79191450D01*
X79269932Y-79073018D01*
X79376500Y-78815739D01*
X79376500Y-78600761D01*
X79437000Y-78600761D01*
X79437000Y-78879239D01*
X79543568Y-79136518D01*
X79740482Y-79333432D01*
X79997761Y-79440000D01*
X80276239Y-79440000D01*
X80533518Y-79333432D01*
X80730432Y-79136518D01*
X80837000Y-78879239D01*
X80837000Y-78673489D01*
X80838439Y-78671335D01*
X80866000Y-78532779D01*
X80866000Y-78532775D01*
X80875304Y-78486001D01*
X80866000Y-78439227D01*
X80866000Y-68078950D01*
X80984432Y-67960518D01*
X81091000Y-67703239D01*
X81091000Y-67535750D01*
X84270751Y-64356000D01*
X98164050Y-64356000D01*
X98282482Y-64474432D01*
X98539761Y-64581000D01*
X98818239Y-64581000D01*
X99075518Y-64474432D01*
X99272432Y-64277518D01*
X99379000Y-64020239D01*
X99379000Y-63741761D01*
X99273353Y-63486705D01*
X106802717Y-63486705D01*
X106866297Y-63668517D01*
X107278459Y-63815562D01*
X107715519Y-63793686D01*
X108017703Y-63668517D01*
X108081283Y-63486705D01*
X107442000Y-62847421D01*
X106802717Y-63486705D01*
X99273353Y-63486705D01*
X99272432Y-63484482D01*
X99075518Y-63287568D01*
X98818239Y-63181000D01*
X98539761Y-63181000D01*
X98282482Y-63287568D01*
X98164050Y-63406000D01*
X84120775Y-63406000D01*
X84074000Y-63396696D01*
X84027225Y-63406000D01*
X84027221Y-63406000D01*
X83917272Y-63427871D01*
X83888664Y-63433561D01*
X83771202Y-63512047D01*
X83731545Y-63538545D01*
X83705047Y-63578202D01*
X80419250Y-66864000D01*
X80251761Y-66864000D01*
X79994482Y-66970568D01*
X79797568Y-67167482D01*
X79691000Y-67424761D01*
X79691000Y-67703239D01*
X79797568Y-67960518D01*
X79916000Y-68078950D01*
X79916001Y-78073866D01*
X79740482Y-78146568D01*
X79543568Y-78343482D01*
X79437000Y-78600761D01*
X79376500Y-78600761D01*
X79376500Y-78537261D01*
X79269932Y-78279982D01*
X79073018Y-78083068D01*
X78815739Y-77976500D01*
X78537261Y-77976500D01*
X78279982Y-78083068D01*
X78083068Y-78279982D01*
X77976500Y-78537261D01*
X74085000Y-78537261D01*
X74085000Y-65053908D01*
X76057513Y-65053908D01*
X76358980Y-65438321D01*
X77476655Y-65910611D01*
X78689989Y-65919235D01*
X79814265Y-65462879D01*
X79851020Y-65438321D01*
X80152487Y-65053908D01*
X78105000Y-63006421D01*
X76057513Y-65053908D01*
X74085000Y-65053908D01*
X74085000Y-63449989D01*
X75050765Y-63449989D01*
X75507121Y-64574265D01*
X75531679Y-64611020D01*
X75916092Y-64912487D01*
X77963579Y-62865000D01*
X78246421Y-62865000D01*
X80293908Y-64912487D01*
X80678321Y-64611020D01*
X81150611Y-63493345D01*
X81157369Y-62542459D01*
X106332438Y-62542459D01*
X106354314Y-62979519D01*
X106479483Y-63281703D01*
X106661295Y-63345283D01*
X107300579Y-62706000D01*
X107583421Y-62706000D01*
X108222705Y-63345283D01*
X108404517Y-63281703D01*
X108551562Y-62869541D01*
X108529686Y-62432481D01*
X108404517Y-62130297D01*
X108222705Y-62066717D01*
X107583421Y-62706000D01*
X107300579Y-62706000D01*
X106661295Y-62066717D01*
X106479483Y-62130297D01*
X106332438Y-62542459D01*
X81157369Y-62542459D01*
X81159235Y-62280011D01*
X80702879Y-61155735D01*
X80678321Y-61118980D01*
X80293908Y-60817513D01*
X78246421Y-62865000D01*
X77963579Y-62865000D01*
X75916092Y-60817513D01*
X75531679Y-61118980D01*
X75059389Y-62236655D01*
X75050765Y-63449989D01*
X74085000Y-63449989D01*
X74085000Y-60676092D01*
X76057513Y-60676092D01*
X78105000Y-62723579D01*
X80152487Y-60676092D01*
X79851020Y-60291679D01*
X79293286Y-60056000D01*
X106435144Y-60056000D01*
X106435144Y-61356000D01*
X106462308Y-61492563D01*
X106539665Y-61608335D01*
X106655437Y-61685692D01*
X106792000Y-61712856D01*
X106940237Y-61712856D01*
X106866297Y-61743483D01*
X106802717Y-61925295D01*
X107442000Y-62564579D01*
X108081283Y-61925295D01*
X108017703Y-61743483D01*
X107931857Y-61712856D01*
X108092000Y-61712856D01*
X108228563Y-61685692D01*
X108344335Y-61608335D01*
X108421692Y-61492563D01*
X108448856Y-61356000D01*
X108448856Y-60056000D01*
X108421692Y-59919437D01*
X108344335Y-59803665D01*
X108228563Y-59726308D01*
X108092000Y-59699144D01*
X106792000Y-59699144D01*
X106655437Y-59726308D01*
X106539665Y-59803665D01*
X106462308Y-59919437D01*
X106435144Y-60056000D01*
X79293286Y-60056000D01*
X78733345Y-59819389D01*
X77520011Y-59810765D01*
X76395735Y-60267121D01*
X76358980Y-60291679D01*
X76057513Y-60676092D01*
X74085000Y-60676092D01*
X74085000Y-58151000D01*
X89671144Y-58151000D01*
X89671144Y-59451000D01*
X89698308Y-59587563D01*
X89775665Y-59703335D01*
X89891437Y-59780692D01*
X90028000Y-59807856D01*
X91328000Y-59807856D01*
X91464563Y-59780692D01*
X91580335Y-59703335D01*
X91657692Y-59587563D01*
X91684856Y-59451000D01*
X91684856Y-58151000D01*
X91657692Y-58014437D01*
X91580335Y-57898665D01*
X91464563Y-57821308D01*
X91328000Y-57794144D01*
X90028000Y-57794144D01*
X89891437Y-57821308D01*
X89775665Y-57898665D01*
X89698308Y-58014437D01*
X89671144Y-58151000D01*
X74085000Y-58151000D01*
X74085000Y-56296196D01*
X76370000Y-56296196D01*
X76370000Y-56733804D01*
X76537465Y-57138100D01*
X76846900Y-57447535D01*
X77251196Y-57615000D01*
X77688804Y-57615000D01*
X78093100Y-57447535D01*
X78402535Y-57138100D01*
X78570000Y-56733804D01*
X78570000Y-56296196D01*
X78402535Y-55891900D01*
X78093100Y-55582465D01*
X77688804Y-55415000D01*
X77251196Y-55415000D01*
X76846900Y-55582465D01*
X76537465Y-55891900D01*
X76370000Y-56296196D01*
X74085000Y-56296196D01*
X74085000Y-54828124D01*
X76758298Y-54828124D01*
X76834147Y-55020307D01*
X77282571Y-55184068D01*
X77759528Y-55163760D01*
X78105853Y-55020307D01*
X78181702Y-54828124D01*
X77470000Y-54116421D01*
X76758298Y-54828124D01*
X74085000Y-54828124D01*
X74085000Y-53787571D01*
X76260932Y-53787571D01*
X76281240Y-54264528D01*
X76424693Y-54610853D01*
X76616876Y-54686702D01*
X77328579Y-53975000D01*
X77611421Y-53975000D01*
X78323124Y-54686702D01*
X78515307Y-54610853D01*
X78525951Y-54581705D01*
X90038717Y-54581705D01*
X90102297Y-54763517D01*
X90514459Y-54910562D01*
X90951519Y-54888686D01*
X91253703Y-54763517D01*
X91317283Y-54581705D01*
X90678000Y-53942421D01*
X90038717Y-54581705D01*
X78525951Y-54581705D01*
X78679068Y-54162429D01*
X78658760Y-53685472D01*
X78638873Y-53637459D01*
X89568438Y-53637459D01*
X89590314Y-54074519D01*
X89715483Y-54376703D01*
X89897295Y-54440283D01*
X90536579Y-53801000D01*
X90819421Y-53801000D01*
X91458705Y-54440283D01*
X91640517Y-54376703D01*
X91787562Y-53964541D01*
X91765686Y-53527481D01*
X91640517Y-53225297D01*
X91458705Y-53161717D01*
X90819421Y-53801000D01*
X90536579Y-53801000D01*
X89897295Y-53161717D01*
X89715483Y-53225297D01*
X89568438Y-53637459D01*
X78638873Y-53637459D01*
X78515307Y-53339147D01*
X78323124Y-53263298D01*
X77611421Y-53975000D01*
X77328579Y-53975000D01*
X76616876Y-53263298D01*
X76424693Y-53339147D01*
X76260932Y-53787571D01*
X74085000Y-53787571D01*
X74085000Y-53121876D01*
X76758298Y-53121876D01*
X77470000Y-53833579D01*
X78181702Y-53121876D01*
X78141611Y-53020295D01*
X90038717Y-53020295D01*
X90678000Y-53659579D01*
X91317283Y-53020295D01*
X91253703Y-52838483D01*
X90841541Y-52691438D01*
X90404481Y-52713314D01*
X90102297Y-52838483D01*
X90038717Y-53020295D01*
X78141611Y-53020295D01*
X78105853Y-52929693D01*
X77657429Y-52765932D01*
X77180472Y-52786240D01*
X76834147Y-52929693D01*
X76758298Y-53121876D01*
X74085000Y-53121876D01*
X74085000Y-49222568D01*
X76041065Y-49222568D01*
X76227959Y-49673789D01*
X76620533Y-50089816D01*
X77142431Y-50323943D01*
X77369998Y-50245094D01*
X77369998Y-50328144D01*
X76720000Y-50328144D01*
X76583437Y-50355308D01*
X76467665Y-50432665D01*
X76390308Y-50548437D01*
X76363144Y-50685000D01*
X76363144Y-52185000D01*
X76390308Y-52321563D01*
X76467665Y-52437335D01*
X76583437Y-52514692D01*
X76720000Y-52541856D01*
X78220000Y-52541856D01*
X78356563Y-52514692D01*
X78472335Y-52437335D01*
X78549692Y-52321563D01*
X78576856Y-52185000D01*
X78576856Y-50685000D01*
X78549692Y-50548437D01*
X78472335Y-50432665D01*
X78356563Y-50355308D01*
X78220000Y-50328144D01*
X77570002Y-50328144D01*
X77570002Y-50245094D01*
X77797569Y-50323943D01*
X78319467Y-50089816D01*
X78712041Y-49673789D01*
X78898935Y-49222568D01*
X78819801Y-48995000D01*
X77570000Y-48995000D01*
X77570000Y-49015000D01*
X77370000Y-49015000D01*
X77370000Y-48995000D01*
X76120199Y-48995000D01*
X76041065Y-49222568D01*
X74085000Y-49222568D01*
X74085000Y-48567432D01*
X76041065Y-48567432D01*
X76120199Y-48795000D01*
X77370000Y-48795000D01*
X77370000Y-48775000D01*
X77570000Y-48775000D01*
X77570000Y-48795000D01*
X78819801Y-48795000D01*
X78873352Y-48641000D01*
X89285239Y-48641000D01*
X89391257Y-49173987D01*
X89693169Y-49625831D01*
X90145013Y-49927743D01*
X90543464Y-50007000D01*
X90812536Y-50007000D01*
X91210987Y-49927743D01*
X91662831Y-49625831D01*
X91752000Y-49492380D01*
X91752000Y-49746511D01*
X91820509Y-49911905D01*
X91947096Y-50038492D01*
X92112490Y-50107000D01*
X93005500Y-50107000D01*
X93118000Y-49994500D01*
X93118000Y-48741000D01*
X93318000Y-48741000D01*
X93318000Y-49994500D01*
X93430500Y-50107000D01*
X94323510Y-50107000D01*
X94488904Y-50038492D01*
X94615491Y-49911905D01*
X94684000Y-49746511D01*
X94684000Y-48853500D01*
X94571500Y-48741000D01*
X93318000Y-48741000D01*
X93118000Y-48741000D01*
X93098000Y-48741000D01*
X93098000Y-48541000D01*
X93118000Y-48541000D01*
X93118000Y-47287500D01*
X93318000Y-47287500D01*
X93318000Y-48541000D01*
X94571500Y-48541000D01*
X94684000Y-48428500D01*
X94684000Y-47535489D01*
X94615491Y-47370095D01*
X94488904Y-47243508D01*
X94323510Y-47175000D01*
X93430500Y-47175000D01*
X93318000Y-47287500D01*
X93118000Y-47287500D01*
X93005500Y-47175000D01*
X92112490Y-47175000D01*
X91947096Y-47243508D01*
X91820509Y-47370095D01*
X91752000Y-47535489D01*
X91752000Y-47789620D01*
X91662831Y-47656169D01*
X91210987Y-47354257D01*
X90812536Y-47275000D01*
X90543464Y-47275000D01*
X90145013Y-47354257D01*
X89693169Y-47656169D01*
X89391257Y-48108013D01*
X89285239Y-48641000D01*
X78873352Y-48641000D01*
X78898935Y-48567432D01*
X78712041Y-48116211D01*
X78345579Y-47727856D01*
X78486000Y-47727856D01*
X78622563Y-47700692D01*
X78738335Y-47623335D01*
X78815692Y-47507563D01*
X78842856Y-47371000D01*
X78842856Y-45339000D01*
X78815692Y-45202437D01*
X78738335Y-45086665D01*
X78633620Y-45016696D01*
X80364818Y-43285500D01*
X91339184Y-43285500D01*
X104792286Y-56738603D01*
X104822972Y-56784528D01*
X105004901Y-56906089D01*
X105165330Y-56938000D01*
X105165331Y-56938000D01*
X105219500Y-56948775D01*
X105273669Y-56938000D01*
X107197144Y-56938000D01*
X107197144Y-57038000D01*
X107224308Y-57174563D01*
X107301665Y-57290335D01*
X107417437Y-57367692D01*
X107554000Y-57394856D01*
X108854000Y-57394856D01*
X108990563Y-57367692D01*
X109106335Y-57290335D01*
X109183692Y-57174563D01*
X109210856Y-57038000D01*
X109210856Y-55738000D01*
X109183692Y-55601437D01*
X109106335Y-55485665D01*
X108990563Y-55408308D01*
X108854000Y-55381144D01*
X107554000Y-55381144D01*
X107417437Y-55408308D01*
X107301665Y-55485665D01*
X107224308Y-55601437D01*
X107197144Y-55738000D01*
X107197144Y-55838000D01*
X105447317Y-55838000D01*
X103278022Y-53668705D01*
X107564717Y-53668705D01*
X107628297Y-53850517D01*
X108040459Y-53997562D01*
X108477519Y-53975686D01*
X108779703Y-53850517D01*
X108843283Y-53668705D01*
X108204000Y-53029421D01*
X107564717Y-53668705D01*
X103278022Y-53668705D01*
X102333776Y-52724459D01*
X107094438Y-52724459D01*
X107116314Y-53161519D01*
X107241483Y-53463703D01*
X107423295Y-53527283D01*
X108062579Y-52888000D01*
X108345421Y-52888000D01*
X108984705Y-53527283D01*
X109166517Y-53463703D01*
X109313562Y-53051541D01*
X109291686Y-52614481D01*
X109166517Y-52312297D01*
X108984705Y-52248717D01*
X108345421Y-52888000D01*
X108062579Y-52888000D01*
X107423295Y-52248717D01*
X107241483Y-52312297D01*
X107094438Y-52724459D01*
X102333776Y-52724459D01*
X101716612Y-52107295D01*
X107564717Y-52107295D01*
X108204000Y-52746579D01*
X108843283Y-52107295D01*
X108779703Y-51925483D01*
X108367541Y-51778438D01*
X107930481Y-51800314D01*
X107628297Y-51925483D01*
X107564717Y-52107295D01*
X101716612Y-52107295D01*
X93944317Y-44335000D01*
X108113144Y-44335000D01*
X108113144Y-45835000D01*
X108140308Y-45971563D01*
X108217665Y-46087335D01*
X108333437Y-46164692D01*
X108470000Y-46191856D01*
X109970000Y-46191856D01*
X110106563Y-46164692D01*
X110222335Y-46087335D01*
X110249539Y-46046621D01*
X110591763Y-46388845D01*
X110639184Y-46459816D01*
X110920347Y-46647682D01*
X111168285Y-46697000D01*
X111168286Y-46697000D01*
X111252000Y-46713652D01*
X111335714Y-46697000D01*
X117264286Y-46697000D01*
X117348000Y-46713652D01*
X117431714Y-46697000D01*
X117431715Y-46697000D01*
X117679653Y-46647682D01*
X117960816Y-46459816D01*
X118008239Y-46388842D01*
X120556845Y-43840237D01*
X120627816Y-43792816D01*
X120751824Y-43607223D01*
X121062941Y-43478355D01*
X121583355Y-42957941D01*
X121865000Y-42277988D01*
X121865000Y-41542012D01*
X121583355Y-40862059D01*
X121062941Y-40341645D01*
X120382988Y-40060000D01*
X119647012Y-40060000D01*
X118967059Y-40341645D01*
X118446645Y-40862059D01*
X118269176Y-41290507D01*
X118259184Y-41297184D01*
X118211763Y-41368155D01*
X116233919Y-43346000D01*
X111462714Y-43346000D01*
X111379000Y-43329348D01*
X111295286Y-43346000D01*
X111295285Y-43346000D01*
X111047347Y-43395318D01*
X110766184Y-43583184D01*
X110718763Y-43654155D01*
X110249539Y-44123379D01*
X110222335Y-44082665D01*
X110106563Y-44005308D01*
X109970000Y-43978144D01*
X108470000Y-43978144D01*
X108333437Y-44005308D01*
X108217665Y-44082665D01*
X108140308Y-44198437D01*
X108113144Y-44335000D01*
X93944317Y-44335000D01*
X91994216Y-42384900D01*
X91963528Y-42338972D01*
X91781599Y-42217411D01*
X91621170Y-42185500D01*
X91621169Y-42185500D01*
X91567000Y-42174725D01*
X91512831Y-42185500D01*
X80191169Y-42185500D01*
X80137000Y-42174725D01*
X80082831Y-42185500D01*
X80082830Y-42185500D01*
X79922401Y-42217411D01*
X79740472Y-42338972D01*
X79709788Y-42384894D01*
X77119398Y-44975286D01*
X77109134Y-44982144D01*
X76454000Y-44982144D01*
X76317437Y-45009308D01*
X76201665Y-45086665D01*
X76124308Y-45202437D01*
X76097144Y-45339000D01*
X76097144Y-47371000D01*
X76124308Y-47507563D01*
X76201665Y-47623335D01*
X76317437Y-47700692D01*
X76454000Y-47727856D01*
X76594421Y-47727856D01*
X76227959Y-48116211D01*
X76041065Y-48567432D01*
X74085000Y-48567432D01*
X74085000Y-38620000D01*
X82713144Y-38620000D01*
X82713144Y-40120000D01*
X82740308Y-40256563D01*
X82817665Y-40372335D01*
X82933437Y-40449692D01*
X83070000Y-40476856D01*
X84570000Y-40476856D01*
X84706563Y-40449692D01*
X84822335Y-40372335D01*
X84899692Y-40256563D01*
X84906343Y-40223124D01*
X85648298Y-40223124D01*
X85724147Y-40415307D01*
X86172571Y-40579068D01*
X86649528Y-40558760D01*
X86995853Y-40415307D01*
X87071702Y-40223124D01*
X86360000Y-39511421D01*
X85648298Y-40223124D01*
X84906343Y-40223124D01*
X84926856Y-40120000D01*
X84926856Y-39182571D01*
X85150932Y-39182571D01*
X85171240Y-39659528D01*
X85314693Y-40005853D01*
X85506876Y-40081702D01*
X86218579Y-39370000D01*
X86501421Y-39370000D01*
X87213124Y-40081702D01*
X87405307Y-40005853D01*
X87569068Y-39557429D01*
X87551772Y-39151196D01*
X87800000Y-39151196D01*
X87800000Y-39588804D01*
X87967465Y-39993100D01*
X88276900Y-40302535D01*
X88681196Y-40470000D01*
X89118804Y-40470000D01*
X89523100Y-40302535D01*
X89832535Y-39993100D01*
X90000000Y-39588804D01*
X90000000Y-39151196D01*
X89832535Y-38746900D01*
X89523759Y-38438124D01*
X108508298Y-38438124D01*
X108584147Y-38630307D01*
X109032571Y-38794068D01*
X109509528Y-38773760D01*
X109855853Y-38630307D01*
X109931702Y-38438124D01*
X109220000Y-37726421D01*
X108508298Y-38438124D01*
X89523759Y-38438124D01*
X89523100Y-38437465D01*
X89118804Y-38270000D01*
X88681196Y-38270000D01*
X88276900Y-38437465D01*
X87967465Y-38746900D01*
X87800000Y-39151196D01*
X87551772Y-39151196D01*
X87548760Y-39080472D01*
X87405307Y-38734147D01*
X87213124Y-38658298D01*
X86501421Y-39370000D01*
X86218579Y-39370000D01*
X85506876Y-38658298D01*
X85314693Y-38734147D01*
X85150932Y-39182571D01*
X84926856Y-39182571D01*
X84926856Y-38620000D01*
X84906344Y-38516876D01*
X85648298Y-38516876D01*
X86360000Y-39228579D01*
X87071702Y-38516876D01*
X86995853Y-38324693D01*
X86547429Y-38160932D01*
X86070472Y-38181240D01*
X85724147Y-38324693D01*
X85648298Y-38516876D01*
X84906344Y-38516876D01*
X84899692Y-38483437D01*
X84822335Y-38367665D01*
X84706563Y-38290308D01*
X84570000Y-38263144D01*
X83070000Y-38263144D01*
X82933437Y-38290308D01*
X82817665Y-38367665D01*
X82740308Y-38483437D01*
X82713144Y-38620000D01*
X74085000Y-38620000D01*
X74085000Y-37397571D01*
X108010932Y-37397571D01*
X108031240Y-37874528D01*
X108174693Y-38220853D01*
X108366876Y-38296702D01*
X109078579Y-37585000D01*
X109361421Y-37585000D01*
X110073124Y-38296702D01*
X110265307Y-38220853D01*
X110429068Y-37772429D01*
X110408760Y-37295472D01*
X110265307Y-36949147D01*
X110073124Y-36873298D01*
X109361421Y-37585000D01*
X109078579Y-37585000D01*
X108366876Y-36873298D01*
X108174693Y-36949147D01*
X108010932Y-37397571D01*
X74085000Y-37397571D01*
X74085000Y-36731876D01*
X108508298Y-36731876D01*
X109220000Y-37443579D01*
X109931702Y-36731876D01*
X109855853Y-36539693D01*
X109407429Y-36375932D01*
X108930472Y-36396240D01*
X108584147Y-36539693D01*
X108508298Y-36731876D01*
X74085000Y-36731876D01*
X74085000Y-36675549D01*
X74340732Y-36678719D01*
X75689045Y-36139711D01*
X75765756Y-36088455D01*
X76140263Y-35641685D01*
X75409855Y-34911277D01*
X75551277Y-34769855D01*
X76281685Y-35500263D01*
X76728455Y-35125756D01*
X77300720Y-33791217D01*
X77305012Y-33445000D01*
X120804451Y-33445000D01*
X120801281Y-33700732D01*
X120801281Y-33700732D01*
G37*
X120801281Y-33700732D02*
X121340289Y-35049045D01*
X121391545Y-35125756D01*
X121838315Y-35500263D01*
X122568723Y-34769855D01*
X122710145Y-34911277D01*
X121979737Y-35641685D01*
X122354244Y-36088455D01*
X123688783Y-36660720D01*
X124035001Y-36665012D01*
X124035000Y-130964451D01*
X123779268Y-130961281D01*
X122430955Y-131500289D01*
X122354244Y-131551545D01*
X121979737Y-131998315D01*
X122695059Y-132713638D01*
X122552340Y-132853762D01*
X121838315Y-132139737D01*
X121391545Y-132514244D01*
X120819280Y-133848783D01*
X120814988Y-134195000D01*
X77315549Y-134195000D01*
X77318719Y-133939268D01*
X76779711Y-132590955D01*
X76728455Y-132514244D01*
X76281685Y-132139737D01*
X75566362Y-132855059D01*
X75426238Y-132712340D01*
X76140263Y-131998315D01*
X75765756Y-131551545D01*
X74431217Y-130979280D01*
X74085000Y-130974988D01*
X74085000Y-130273124D01*
X108508298Y-130273124D01*
X108584147Y-130465307D01*
X109032571Y-130629068D01*
X109509528Y-130608760D01*
X109855853Y-130465307D01*
X109931702Y-130273124D01*
X109220000Y-129561421D01*
X108508298Y-130273124D01*
X74085000Y-130273124D01*
X74085000Y-129232571D01*
X108010932Y-129232571D01*
X108031240Y-129709528D01*
X108174693Y-130055853D01*
X108366876Y-130131702D01*
X109078579Y-129420000D01*
X109361421Y-129420000D01*
X110073124Y-130131702D01*
X110265307Y-130055853D01*
X110429068Y-129607429D01*
X110408760Y-129130472D01*
X110265307Y-128784147D01*
X110073124Y-128708298D01*
X109361421Y-129420000D01*
X109078579Y-129420000D01*
X108366876Y-128708298D01*
X108174693Y-128784147D01*
X108010932Y-129232571D01*
X74085000Y-129232571D01*
X74085000Y-128566876D01*
X108508298Y-128566876D01*
X109220000Y-129278579D01*
X109931702Y-128566876D01*
X109855853Y-128374693D01*
X109407429Y-128210932D01*
X108930472Y-128231240D01*
X108584147Y-128374693D01*
X108508298Y-128566876D01*
X74085000Y-128566876D01*
X74085000Y-127125146D01*
X119396275Y-127125146D01*
X119563745Y-127395233D01*
X120283688Y-127684167D01*
X121059399Y-127675596D01*
X121736255Y-127395233D01*
X121903725Y-127125146D01*
X120650000Y-125871421D01*
X119396275Y-127125146D01*
X74085000Y-127125146D01*
X74085000Y-125363688D01*
X118695833Y-125363688D01*
X118704404Y-126139399D01*
X118984767Y-126816255D01*
X119254854Y-126983725D01*
X120508579Y-125730000D01*
X120791421Y-125730000D01*
X122045146Y-126983725D01*
X122315233Y-126816255D01*
X122604167Y-126096312D01*
X122595596Y-125320601D01*
X122315233Y-124643745D01*
X122045146Y-124476275D01*
X120791421Y-125730000D01*
X120508579Y-125730000D01*
X119254854Y-124476275D01*
X118984767Y-124643745D01*
X118695833Y-125363688D01*
X74085000Y-125363688D01*
X74085000Y-124334854D01*
X119396275Y-124334854D01*
X120650000Y-125588579D01*
X121903725Y-124334854D01*
X121736255Y-124064767D01*
X121016312Y-123775833D01*
X120240601Y-123784404D01*
X119563745Y-124064767D01*
X119396275Y-124334854D01*
X74085000Y-124334854D01*
X74085000Y-115986196D01*
X76370000Y-115986196D01*
X76370000Y-116423804D01*
X76537465Y-116828100D01*
X76846900Y-117137535D01*
X77251196Y-117305000D01*
X77688804Y-117305000D01*
X78093100Y-117137535D01*
X78402535Y-116828100D01*
X78570000Y-116423804D01*
X78570000Y-115986196D01*
X78402535Y-115581900D01*
X78093100Y-115272465D01*
X77688804Y-115105000D01*
X77251196Y-115105000D01*
X76846900Y-115272465D01*
X76537465Y-115581900D01*
X76370000Y-115986196D01*
X74085000Y-115986196D01*
X74085000Y-114518124D01*
X76758298Y-114518124D01*
X76834147Y-114710307D01*
X77282571Y-114874068D01*
X77759528Y-114853760D01*
X78105853Y-114710307D01*
X78181702Y-114518124D01*
X77470000Y-113806421D01*
X76758298Y-114518124D01*
X74085000Y-114518124D01*
X74085000Y-113477571D01*
X76260932Y-113477571D01*
X76281240Y-113954528D01*
X76424693Y-114300853D01*
X76616876Y-114376702D01*
X77328579Y-113665000D01*
X77611421Y-113665000D01*
X78323124Y-114376702D01*
X78515307Y-114300853D01*
X78679068Y-113852429D01*
X78658760Y-113375472D01*
X78515307Y-113029147D01*
X78323124Y-112953298D01*
X77611421Y-113665000D01*
X77328579Y-113665000D01*
X76616876Y-112953298D01*
X76424693Y-113029147D01*
X76260932Y-113477571D01*
X74085000Y-113477571D01*
X74085000Y-112811876D01*
X76758298Y-112811876D01*
X77470000Y-113523579D01*
X78181702Y-112811876D01*
X78105853Y-112619693D01*
X77657429Y-112455932D01*
X77180472Y-112476240D01*
X76834147Y-112619693D01*
X76758298Y-112811876D01*
X74085000Y-112811876D01*
X74085000Y-110375000D01*
X76363144Y-110375000D01*
X76363144Y-111875000D01*
X76390308Y-112011563D01*
X76467665Y-112127335D01*
X76583437Y-112204692D01*
X76720000Y-112231856D01*
X78220000Y-112231856D01*
X78356563Y-112204692D01*
X78472335Y-112127335D01*
X78549692Y-112011563D01*
X78576856Y-111875000D01*
X78576856Y-110375000D01*
X78549692Y-110238437D01*
X78472335Y-110122665D01*
X78356563Y-110045308D01*
X78220000Y-110018144D01*
X76720000Y-110018144D01*
X76583437Y-110045308D01*
X76467665Y-110122665D01*
X76390308Y-110238437D01*
X76363144Y-110375000D01*
X74085000Y-110375000D01*
X74085000Y-104429196D01*
X94404000Y-104429196D01*
X94404000Y-104866804D01*
X94571465Y-105271100D01*
X94880900Y-105580535D01*
X95285196Y-105748000D01*
X95722804Y-105748000D01*
X96127100Y-105580535D01*
X96436535Y-105271100D01*
X96604000Y-104866804D01*
X96604000Y-104429196D01*
X96436535Y-104024900D01*
X96127100Y-103715465D01*
X95722804Y-103548000D01*
X95285196Y-103548000D01*
X94880900Y-103715465D01*
X94571465Y-104024900D01*
X94404000Y-104429196D01*
X74085000Y-104429196D01*
X74085000Y-101079761D01*
X77722500Y-101079761D01*
X77722500Y-101358239D01*
X77829068Y-101615518D01*
X78025982Y-101812432D01*
X78283261Y-101919000D01*
X78561739Y-101919000D01*
X78819018Y-101812432D01*
X78937450Y-101694000D01*
X81273050Y-101694000D01*
X81391482Y-101812432D01*
X81648761Y-101919000D01*
X81927239Y-101919000D01*
X82184518Y-101812432D01*
X82302950Y-101694000D01*
X96922471Y-101694000D01*
X96942568Y-101742518D01*
X97139482Y-101939432D01*
X97396761Y-102046000D01*
X97675239Y-102046000D01*
X97932518Y-101939432D01*
X98129432Y-101742518D01*
X98236000Y-101485239D01*
X98236000Y-101206761D01*
X98129432Y-100949482D01*
X97932518Y-100752568D01*
X97675239Y-100646000D01*
X97396761Y-100646000D01*
X97160167Y-100744000D01*
X82302950Y-100744000D01*
X82184518Y-100625568D01*
X81927239Y-100519000D01*
X81648761Y-100519000D01*
X81391482Y-100625568D01*
X81273050Y-100744000D01*
X78937450Y-100744000D01*
X78819018Y-100625568D01*
X78561739Y-100519000D01*
X78283261Y-100519000D01*
X78025982Y-100625568D01*
X77829068Y-100822482D01*
X77722500Y-101079761D01*
X74085000Y-101079761D01*
X74085000Y-88760761D01*
X77659000Y-88760761D01*
X77659000Y-89039239D01*
X77765568Y-89296518D01*
X77884000Y-89414950D01*
X77884000Y-89488226D01*
X77874696Y-89535000D01*
X77884000Y-89581774D01*
X77884000Y-89581778D01*
X77911561Y-89720334D01*
X78016545Y-89877455D01*
X78056204Y-89903955D01*
X79260049Y-91107801D01*
X79286545Y-91147455D01*
X79326199Y-91173951D01*
X79326201Y-91173953D01*
X79367456Y-91201518D01*
X79443665Y-91252439D01*
X79582221Y-91280000D01*
X79582225Y-91280000D01*
X79628999Y-91289304D01*
X79675773Y-91280000D01*
X96513050Y-91280000D01*
X96631482Y-91398432D01*
X96888761Y-91505000D01*
X97167239Y-91505000D01*
X97424518Y-91398432D01*
X97621432Y-91201518D01*
X97728000Y-90944239D01*
X97728000Y-90665761D01*
X97621432Y-90408482D01*
X97424518Y-90211568D01*
X97167239Y-90105000D01*
X96888761Y-90105000D01*
X96631482Y-90211568D01*
X96513050Y-90330000D01*
X79825752Y-90330000D01*
X78872350Y-89376600D01*
X78952432Y-89296518D01*
X79059000Y-89039239D01*
X79059000Y-88760761D01*
X78952432Y-88503482D01*
X78755518Y-88306568D01*
X78498239Y-88200000D01*
X78219761Y-88200000D01*
X77962482Y-88306568D01*
X77765568Y-88503482D01*
X77659000Y-88760761D01*
X74085000Y-88760761D01*
X74085000Y-78537261D01*
X77976500Y-78537261D01*
X77976500Y-78815739D01*
X78083068Y-79073018D01*
X78201500Y-79191450D01*
X78201501Y-87138721D01*
X78192196Y-87185500D01*
X78229062Y-87370835D01*
X78299066Y-87475603D01*
X78334046Y-87527955D01*
X78373702Y-87554452D01*
X78691202Y-87871953D01*
X78691205Y-87871955D01*
X80022049Y-89202801D01*
X80048545Y-89242455D01*
X80088199Y-89268951D01*
X80088201Y-89268953D01*
X80129456Y-89296518D01*
X80205665Y-89347439D01*
X80344221Y-89375000D01*
X80344225Y-89375000D01*
X80390999Y-89384304D01*
X80437773Y-89375000D01*
X97021050Y-89375000D01*
X97139482Y-89493432D01*
X97396761Y-89600000D01*
X97675239Y-89600000D01*
X97932518Y-89493432D01*
X98129432Y-89296518D01*
X98192501Y-89144256D01*
X98192501Y-91529682D01*
X97947396Y-91774788D01*
X97816184Y-91906000D01*
X95181950Y-91906000D01*
X95138518Y-91862568D01*
X94881239Y-91756000D01*
X94602761Y-91756000D01*
X94345482Y-91862568D01*
X94227050Y-91981000D01*
X83485775Y-91981000D01*
X83439000Y-91971696D01*
X83392225Y-91981000D01*
X83392221Y-91981000D01*
X83282272Y-92002871D01*
X83253664Y-92008561D01*
X83215820Y-92033848D01*
X83096545Y-92113545D01*
X83070047Y-92153202D01*
X80673250Y-94550000D01*
X80505761Y-94550000D01*
X80248482Y-94656568D01*
X80051568Y-94853482D01*
X79945000Y-95110761D01*
X79945000Y-95389239D01*
X80051568Y-95646518D01*
X80248482Y-95843432D01*
X80505761Y-95950000D01*
X80784239Y-95950000D01*
X81041518Y-95843432D01*
X81238432Y-95646518D01*
X81345000Y-95389239D01*
X81345000Y-95221750D01*
X83635751Y-92931000D01*
X94227050Y-92931000D01*
X94345482Y-93049432D01*
X94602761Y-93156000D01*
X94881239Y-93156000D01*
X95138518Y-93049432D01*
X95181950Y-93006000D01*
X97989831Y-93006000D01*
X98044000Y-93016775D01*
X98098169Y-93006000D01*
X98098170Y-93006000D01*
X98258599Y-92974089D01*
X98440528Y-92852528D01*
X98471216Y-92806600D01*
X98725212Y-92552604D01*
X99093102Y-92184715D01*
X99139028Y-92154028D01*
X99260589Y-91972099D01*
X99292500Y-91811670D01*
X99292500Y-91811669D01*
X99303275Y-91757500D01*
X99292500Y-91703331D01*
X99292500Y-87566500D01*
X99463348Y-87566500D01*
X99529318Y-87898153D01*
X99544294Y-87920566D01*
X99523383Y-87953137D01*
X99463494Y-88285941D01*
X99535523Y-88616331D01*
X99728503Y-88894009D01*
X100013057Y-89076697D01*
X100261856Y-89121469D01*
X100889873Y-89109973D01*
X100963332Y-89122251D01*
X102057810Y-89088594D01*
X102920226Y-89072808D01*
X109830500Y-95983082D01*
X109830501Y-104257058D01*
X109708035Y-103961400D01*
X109398600Y-103651965D01*
X108994304Y-103484500D01*
X108556696Y-103484500D01*
X108152400Y-103651965D01*
X107842965Y-103961400D01*
X107772570Y-104131349D01*
X107027158Y-104876761D01*
X106956184Y-104924184D01*
X106908763Y-104995155D01*
X106265157Y-105638762D01*
X106194184Y-105686184D01*
X106146762Y-105757156D01*
X105693658Y-106210261D01*
X105622684Y-106257684D01*
X105434818Y-106538848D01*
X105392254Y-106752830D01*
X105368848Y-106870500D01*
X105385500Y-106954214D01*
X105385501Y-119613781D01*
X105368848Y-119697500D01*
X105396926Y-119838653D01*
X105434819Y-120029153D01*
X105622685Y-120310316D01*
X105693656Y-120357737D01*
X107289763Y-121953845D01*
X107337184Y-122024816D01*
X107618347Y-122212682D01*
X107884029Y-122265530D01*
X107949999Y-122278652D01*
X107950000Y-122278652D01*
X108113144Y-122246200D01*
X108113144Y-122670000D01*
X108140308Y-122806563D01*
X108217665Y-122922335D01*
X108333437Y-122999692D01*
X108470000Y-123026856D01*
X109970000Y-123026856D01*
X110106563Y-122999692D01*
X110222335Y-122922335D01*
X110299692Y-122806563D01*
X110326856Y-122670000D01*
X110326856Y-121170000D01*
X110299692Y-121033437D01*
X110222335Y-120917665D01*
X110106563Y-120840308D01*
X109970000Y-120813144D01*
X109435000Y-120813144D01*
X109435000Y-120797214D01*
X109451652Y-120713500D01*
X109428523Y-120597225D01*
X109385682Y-120381847D01*
X109197816Y-120100684D01*
X109126845Y-120053263D01*
X108419000Y-119345419D01*
X108419000Y-106290317D01*
X109046393Y-105662924D01*
X109398600Y-105517035D01*
X109708035Y-105207600D01*
X109830501Y-104911941D01*
X109830501Y-106073121D01*
X109816318Y-106094347D01*
X109750348Y-106426000D01*
X109767001Y-106509720D01*
X109767000Y-107993286D01*
X109750348Y-108077000D01*
X109767000Y-108160714D01*
X109816318Y-108408652D01*
X110004184Y-108689816D01*
X110075158Y-108737239D01*
X118165000Y-116827082D01*
X118165000Y-117207988D01*
X118446645Y-117887941D01*
X118967059Y-118408355D01*
X119647012Y-118690000D01*
X120382988Y-118690000D01*
X121062941Y-118408355D01*
X121583355Y-117887941D01*
X121865000Y-117207988D01*
X121865000Y-116472012D01*
X121583355Y-115792059D01*
X121062941Y-115271645D01*
X120382988Y-114990000D01*
X119875081Y-114990000D01*
X112246500Y-107361419D01*
X112246500Y-95240669D01*
X112257275Y-95186500D01*
X112246500Y-95132330D01*
X112214589Y-94971901D01*
X112093028Y-94789972D01*
X112047103Y-94759286D01*
X105138716Y-87850900D01*
X105108028Y-87804972D01*
X105071547Y-87780596D01*
X104990736Y-87659654D01*
X104355739Y-87024658D01*
X104308316Y-86953684D01*
X104027153Y-86765818D01*
X103779215Y-86716500D01*
X103779214Y-86716500D01*
X103695500Y-86699848D01*
X103611786Y-86716500D01*
X100246285Y-86716500D01*
X99998347Y-86765818D01*
X99717184Y-86953684D01*
X99529318Y-87234847D01*
X99463348Y-87566500D01*
X99292500Y-87566500D01*
X99292500Y-85738522D01*
X99458374Y-85738522D01*
X99529511Y-86069106D01*
X99721741Y-86347303D01*
X100005801Y-86530759D01*
X100254479Y-86576202D01*
X101261314Y-86560490D01*
X101316790Y-86571525D01*
X101374245Y-86560096D01*
X104372882Y-86523951D01*
X104394000Y-86528152D01*
X104417842Y-86523409D01*
X105940475Y-86505056D01*
X105971075Y-86535656D01*
X106015657Y-86584150D01*
X106030185Y-86594766D01*
X112688000Y-93252581D01*
X112688001Y-105239281D01*
X112671348Y-105323000D01*
X112721674Y-105576000D01*
X112737319Y-105654653D01*
X112925185Y-105935816D01*
X112996156Y-105983237D01*
X118165000Y-111152082D01*
X118165000Y-111492988D01*
X118446645Y-112172941D01*
X118967059Y-112693355D01*
X119647012Y-112975000D01*
X120382988Y-112975000D01*
X121062941Y-112693355D01*
X121583355Y-112172941D01*
X121865000Y-111492988D01*
X121865000Y-110757012D01*
X121583355Y-110077059D01*
X121062941Y-109556645D01*
X120382988Y-109275000D01*
X119647012Y-109275000D01*
X119449071Y-109356990D01*
X117055989Y-106963908D01*
X117967513Y-106963908D01*
X118268980Y-107348321D01*
X119386655Y-107820611D01*
X120599989Y-107829235D01*
X121724265Y-107372879D01*
X121761020Y-107348321D01*
X122062487Y-106963908D01*
X120015000Y-104916421D01*
X117967513Y-106963908D01*
X117055989Y-106963908D01*
X115452070Y-105359989D01*
X116960765Y-105359989D01*
X117417121Y-106484265D01*
X117441679Y-106521020D01*
X117826092Y-106822487D01*
X119873579Y-104775000D01*
X120156421Y-104775000D01*
X122203908Y-106822487D01*
X122588321Y-106521020D01*
X123060611Y-105403345D01*
X123069235Y-104190011D01*
X122612879Y-103065735D01*
X122588321Y-103028980D01*
X122203908Y-102727513D01*
X120156421Y-104775000D01*
X119873579Y-104775000D01*
X117826092Y-102727513D01*
X117441679Y-103028980D01*
X116969389Y-104146655D01*
X116960765Y-105359989D01*
X115452070Y-105359989D01*
X115150000Y-105057919D01*
X115150000Y-102586092D01*
X117967513Y-102586092D01*
X120015000Y-104633579D01*
X122062487Y-102586092D01*
X121761020Y-102201679D01*
X120643345Y-101729389D01*
X119430011Y-101720765D01*
X118305735Y-102177121D01*
X118268980Y-102201679D01*
X117967513Y-102586092D01*
X115150000Y-102586092D01*
X115150000Y-92539713D01*
X115166652Y-92455999D01*
X115139257Y-92318275D01*
X115100682Y-92124347D01*
X114912816Y-91843184D01*
X114841845Y-91795763D01*
X114267278Y-91221196D01*
X118280000Y-91221196D01*
X118280000Y-91658804D01*
X118447465Y-92063100D01*
X118756900Y-92372535D01*
X119161196Y-92540000D01*
X119598804Y-92540000D01*
X120003100Y-92372535D01*
X120312535Y-92063100D01*
X120480000Y-91658804D01*
X120480000Y-91221196D01*
X120312535Y-90816900D01*
X120003100Y-90507465D01*
X119598804Y-90340000D01*
X119161196Y-90340000D01*
X118756900Y-90507465D01*
X118447465Y-90816900D01*
X118280000Y-91221196D01*
X114267278Y-91221196D01*
X108165738Y-85119657D01*
X108165736Y-85119654D01*
X107528682Y-84482601D01*
X107479152Y-84409549D01*
X107340319Y-84318138D01*
X107202153Y-84225819D01*
X107199221Y-84225236D01*
X107196723Y-84223591D01*
X107033505Y-84192272D01*
X106870500Y-84159848D01*
X106783935Y-84177067D01*
X105844225Y-84183431D01*
X105781672Y-84168232D01*
X105680147Y-84184028D01*
X105146788Y-84183277D01*
X105029000Y-84159848D01*
X104912867Y-84182948D01*
X100247482Y-84176384D01*
X99999474Y-84225353D01*
X99718047Y-84412823D01*
X99529786Y-84693721D01*
X99463349Y-85025281D01*
X99528853Y-85357026D01*
X99539952Y-85373688D01*
X99519161Y-85405881D01*
X99458374Y-85738522D01*
X99292500Y-85738522D01*
X99292500Y-83193942D01*
X99458315Y-83193942D01*
X99527703Y-83524897D01*
X99718460Y-83804106D01*
X100001547Y-83989061D01*
X100249981Y-84035818D01*
X105021120Y-83986585D01*
X105029000Y-83988152D01*
X105037743Y-83986413D01*
X105680373Y-83979782D01*
X105779715Y-83994871D01*
X105846358Y-83978424D01*
X106789623Y-83972064D01*
X106870500Y-83988152D01*
X106957052Y-83970935D01*
X106959943Y-83970916D01*
X107039122Y-83954610D01*
X107202153Y-83922181D01*
X107204628Y-83920527D01*
X107207543Y-83919927D01*
X107345108Y-83826662D01*
X107412345Y-83781736D01*
X107414390Y-83779691D01*
X107487433Y-83730170D01*
X107532782Y-83661299D01*
X108165736Y-83028346D01*
X108165738Y-83028343D01*
X114714845Y-76479237D01*
X114785816Y-76431816D01*
X114973682Y-76150653D01*
X115023000Y-75902715D01*
X115023000Y-75902714D01*
X115039652Y-75819000D01*
X115023000Y-75735286D01*
X115023000Y-74711196D01*
X118280000Y-74711196D01*
X118280000Y-75148804D01*
X118447465Y-75553100D01*
X118756900Y-75862535D01*
X119161196Y-76030000D01*
X119598804Y-76030000D01*
X120003100Y-75862535D01*
X120312535Y-75553100D01*
X120480000Y-75148804D01*
X120480000Y-74711196D01*
X120312535Y-74306900D01*
X120003100Y-73997465D01*
X119598804Y-73830000D01*
X119161196Y-73830000D01*
X118756900Y-73997465D01*
X118447465Y-74306900D01*
X118280000Y-74711196D01*
X115023000Y-74711196D01*
X115023000Y-63090081D01*
X115720885Y-62392196D01*
X116248000Y-62392196D01*
X116248000Y-62829804D01*
X116415465Y-63234100D01*
X116724900Y-63543535D01*
X117129196Y-63711000D01*
X117566804Y-63711000D01*
X117971100Y-63543535D01*
X118280535Y-63234100D01*
X118448000Y-62829804D01*
X118448000Y-62392196D01*
X118280535Y-61987900D01*
X117971100Y-61678465D01*
X117566804Y-61511000D01*
X117129196Y-61511000D01*
X116724900Y-61678465D01*
X116415465Y-61987900D01*
X116248000Y-62392196D01*
X115720885Y-62392196D01*
X119748082Y-58365000D01*
X120382988Y-58365000D01*
X121062941Y-58083355D01*
X121583355Y-57562941D01*
X121865000Y-56882988D01*
X121865000Y-56147012D01*
X121583355Y-55467059D01*
X121062941Y-54946645D01*
X120382988Y-54665000D01*
X119647012Y-54665000D01*
X118967059Y-54946645D01*
X118446645Y-55467059D01*
X118165000Y-56147012D01*
X118165000Y-56400918D01*
X112996158Y-61569761D01*
X112925184Y-61617184D01*
X112737318Y-61898348D01*
X112691180Y-62130297D01*
X112671348Y-62230000D01*
X112688000Y-62313714D01*
X112688001Y-74895417D01*
X106060843Y-81522576D01*
X106045114Y-81534157D01*
X106001749Y-81581670D01*
X105964419Y-81619000D01*
X103368669Y-81619000D01*
X103314500Y-81608225D01*
X103260331Y-81619000D01*
X103260330Y-81619000D01*
X103172351Y-81636500D01*
X100246285Y-81636500D01*
X99998347Y-81685818D01*
X99717184Y-81873684D01*
X99529318Y-82154847D01*
X99463348Y-82486500D01*
X99529318Y-82818153D01*
X99539402Y-82833245D01*
X99520859Y-82861627D01*
X99458315Y-83193942D01*
X99292500Y-83193942D01*
X99292500Y-79946500D01*
X99463348Y-79946500D01*
X99529318Y-80278153D01*
X99544558Y-80300961D01*
X99522213Y-80336051D01*
X99463558Y-80669074D01*
X99536812Y-80999195D01*
X99730821Y-81276155D01*
X100016051Y-81457787D01*
X100265014Y-81501636D01*
X103367058Y-81433344D01*
X103441500Y-81448152D01*
X103534471Y-81429659D01*
X103543903Y-81429451D01*
X103616501Y-81413342D01*
X103773153Y-81382181D01*
X103781221Y-81376790D01*
X103790695Y-81374688D01*
X103921516Y-81283048D01*
X103983345Y-81241736D01*
X103990017Y-81235064D01*
X104067655Y-81180679D01*
X104108423Y-81116658D01*
X104618342Y-80606739D01*
X104689316Y-80559316D01*
X104736739Y-80488342D01*
X104935842Y-80289239D01*
X105006816Y-80241816D01*
X105054239Y-80170842D01*
X111222342Y-74002739D01*
X111293316Y-73955316D01*
X111481182Y-73674153D01*
X111530500Y-73426215D01*
X111547152Y-73342501D01*
X111530500Y-73258787D01*
X111530500Y-60526581D01*
X119387552Y-52669529D01*
X119647012Y-52777000D01*
X120382988Y-52777000D01*
X121062941Y-52495355D01*
X121583355Y-51974941D01*
X121865000Y-51294988D01*
X121865000Y-50559012D01*
X121583355Y-49879059D01*
X121062941Y-49358645D01*
X120382988Y-49077000D01*
X119647012Y-49077000D01*
X118967059Y-49358645D01*
X118446645Y-49879059D01*
X118165000Y-50559012D01*
X118165000Y-50939919D01*
X109567158Y-59537761D01*
X109496184Y-59585184D01*
X109308318Y-59866348D01*
X109270594Y-60056000D01*
X109242348Y-60198000D01*
X109259000Y-60281714D01*
X109259001Y-72418918D01*
X103852158Y-77825761D01*
X103781184Y-77873184D01*
X103733763Y-77944155D01*
X102581419Y-79096500D01*
X100246285Y-79096500D01*
X99998347Y-79145818D01*
X99717184Y-79333684D01*
X99529318Y-79614847D01*
X99463348Y-79946500D01*
X99292500Y-79946500D01*
X99292500Y-77968668D01*
X99303275Y-77914499D01*
X99285624Y-77825764D01*
X99260589Y-77699901D01*
X99139028Y-77517972D01*
X99093103Y-77487286D01*
X96439216Y-74833400D01*
X96408528Y-74787472D01*
X96226599Y-74665911D01*
X96066170Y-74634000D01*
X96066169Y-74634000D01*
X96012000Y-74623225D01*
X95957831Y-74634000D01*
X95181950Y-74634000D01*
X95138518Y-74590568D01*
X94881239Y-74484000D01*
X94602761Y-74484000D01*
X94345482Y-74590568D01*
X94148568Y-74787482D01*
X94042000Y-75044761D01*
X94042000Y-75323239D01*
X94148568Y-75580518D01*
X94345482Y-75777432D01*
X94602761Y-75884000D01*
X94881239Y-75884000D01*
X95138518Y-75777432D01*
X95181950Y-75734000D01*
X95784184Y-75734000D01*
X98192500Y-78142317D01*
X98192501Y-88655744D01*
X98129432Y-88503482D01*
X97932518Y-88306568D01*
X97675239Y-88200000D01*
X97396761Y-88200000D01*
X97139482Y-88306568D01*
X97021050Y-88425000D01*
X80587752Y-88425000D01*
X79362955Y-87200205D01*
X79362953Y-87200202D01*
X79151500Y-86988750D01*
X79151500Y-79191450D01*
X79269932Y-79073018D01*
X79376500Y-78815739D01*
X79376500Y-78600761D01*
X79437000Y-78600761D01*
X79437000Y-78879239D01*
X79543568Y-79136518D01*
X79740482Y-79333432D01*
X79997761Y-79440000D01*
X80276239Y-79440000D01*
X80533518Y-79333432D01*
X80730432Y-79136518D01*
X80837000Y-78879239D01*
X80837000Y-78673489D01*
X80838439Y-78671335D01*
X80866000Y-78532779D01*
X80866000Y-78532775D01*
X80875304Y-78486001D01*
X80866000Y-78439227D01*
X80866000Y-68078950D01*
X80984432Y-67960518D01*
X81091000Y-67703239D01*
X81091000Y-67535750D01*
X84270751Y-64356000D01*
X98164050Y-64356000D01*
X98282482Y-64474432D01*
X98539761Y-64581000D01*
X98818239Y-64581000D01*
X99075518Y-64474432D01*
X99272432Y-64277518D01*
X99379000Y-64020239D01*
X99379000Y-63741761D01*
X99273353Y-63486705D01*
X106802717Y-63486705D01*
X106866297Y-63668517D01*
X107278459Y-63815562D01*
X107715519Y-63793686D01*
X108017703Y-63668517D01*
X108081283Y-63486705D01*
X107442000Y-62847421D01*
X106802717Y-63486705D01*
X99273353Y-63486705D01*
X99272432Y-63484482D01*
X99075518Y-63287568D01*
X98818239Y-63181000D01*
X98539761Y-63181000D01*
X98282482Y-63287568D01*
X98164050Y-63406000D01*
X84120775Y-63406000D01*
X84074000Y-63396696D01*
X84027225Y-63406000D01*
X84027221Y-63406000D01*
X83917272Y-63427871D01*
X83888664Y-63433561D01*
X83771202Y-63512047D01*
X83731545Y-63538545D01*
X83705047Y-63578202D01*
X80419250Y-66864000D01*
X80251761Y-66864000D01*
X79994482Y-66970568D01*
X79797568Y-67167482D01*
X79691000Y-67424761D01*
X79691000Y-67703239D01*
X79797568Y-67960518D01*
X79916000Y-68078950D01*
X79916001Y-78073866D01*
X79740482Y-78146568D01*
X79543568Y-78343482D01*
X79437000Y-78600761D01*
X79376500Y-78600761D01*
X79376500Y-78537261D01*
X79269932Y-78279982D01*
X79073018Y-78083068D01*
X78815739Y-77976500D01*
X78537261Y-77976500D01*
X78279982Y-78083068D01*
X78083068Y-78279982D01*
X77976500Y-78537261D01*
X74085000Y-78537261D01*
X74085000Y-65053908D01*
X76057513Y-65053908D01*
X76358980Y-65438321D01*
X77476655Y-65910611D01*
X78689989Y-65919235D01*
X79814265Y-65462879D01*
X79851020Y-65438321D01*
X80152487Y-65053908D01*
X78105000Y-63006421D01*
X76057513Y-65053908D01*
X74085000Y-65053908D01*
X74085000Y-63449989D01*
X75050765Y-63449989D01*
X75507121Y-64574265D01*
X75531679Y-64611020D01*
X75916092Y-64912487D01*
X77963579Y-62865000D01*
X78246421Y-62865000D01*
X80293908Y-64912487D01*
X80678321Y-64611020D01*
X81150611Y-63493345D01*
X81157369Y-62542459D01*
X106332438Y-62542459D01*
X106354314Y-62979519D01*
X106479483Y-63281703D01*
X106661295Y-63345283D01*
X107300579Y-62706000D01*
X107583421Y-62706000D01*
X108222705Y-63345283D01*
X108404517Y-63281703D01*
X108551562Y-62869541D01*
X108529686Y-62432481D01*
X108404517Y-62130297D01*
X108222705Y-62066717D01*
X107583421Y-62706000D01*
X107300579Y-62706000D01*
X106661295Y-62066717D01*
X106479483Y-62130297D01*
X106332438Y-62542459D01*
X81157369Y-62542459D01*
X81159235Y-62280011D01*
X80702879Y-61155735D01*
X80678321Y-61118980D01*
X80293908Y-60817513D01*
X78246421Y-62865000D01*
X77963579Y-62865000D01*
X75916092Y-60817513D01*
X75531679Y-61118980D01*
X75059389Y-62236655D01*
X75050765Y-63449989D01*
X74085000Y-63449989D01*
X74085000Y-60676092D01*
X76057513Y-60676092D01*
X78105000Y-62723579D01*
X80152487Y-60676092D01*
X79851020Y-60291679D01*
X79293286Y-60056000D01*
X106435144Y-60056000D01*
X106435144Y-61356000D01*
X106462308Y-61492563D01*
X106539665Y-61608335D01*
X106655437Y-61685692D01*
X106792000Y-61712856D01*
X106940237Y-61712856D01*
X106866297Y-61743483D01*
X106802717Y-61925295D01*
X107442000Y-62564579D01*
X108081283Y-61925295D01*
X108017703Y-61743483D01*
X107931857Y-61712856D01*
X108092000Y-61712856D01*
X108228563Y-61685692D01*
X108344335Y-61608335D01*
X108421692Y-61492563D01*
X108448856Y-61356000D01*
X108448856Y-60056000D01*
X108421692Y-59919437D01*
X108344335Y-59803665D01*
X108228563Y-59726308D01*
X108092000Y-59699144D01*
X106792000Y-59699144D01*
X106655437Y-59726308D01*
X106539665Y-59803665D01*
X106462308Y-59919437D01*
X106435144Y-60056000D01*
X79293286Y-60056000D01*
X78733345Y-59819389D01*
X77520011Y-59810765D01*
X76395735Y-60267121D01*
X76358980Y-60291679D01*
X76057513Y-60676092D01*
X74085000Y-60676092D01*
X74085000Y-58151000D01*
X89671144Y-58151000D01*
X89671144Y-59451000D01*
X89698308Y-59587563D01*
X89775665Y-59703335D01*
X89891437Y-59780692D01*
X90028000Y-59807856D01*
X91328000Y-59807856D01*
X91464563Y-59780692D01*
X91580335Y-59703335D01*
X91657692Y-59587563D01*
X91684856Y-59451000D01*
X91684856Y-58151000D01*
X91657692Y-58014437D01*
X91580335Y-57898665D01*
X91464563Y-57821308D01*
X91328000Y-57794144D01*
X90028000Y-57794144D01*
X89891437Y-57821308D01*
X89775665Y-57898665D01*
X89698308Y-58014437D01*
X89671144Y-58151000D01*
X74085000Y-58151000D01*
X74085000Y-56296196D01*
X76370000Y-56296196D01*
X76370000Y-56733804D01*
X76537465Y-57138100D01*
X76846900Y-57447535D01*
X77251196Y-57615000D01*
X77688804Y-57615000D01*
X78093100Y-57447535D01*
X78402535Y-57138100D01*
X78570000Y-56733804D01*
X78570000Y-56296196D01*
X78402535Y-55891900D01*
X78093100Y-55582465D01*
X77688804Y-55415000D01*
X77251196Y-55415000D01*
X76846900Y-55582465D01*
X76537465Y-55891900D01*
X76370000Y-56296196D01*
X74085000Y-56296196D01*
X74085000Y-54828124D01*
X76758298Y-54828124D01*
X76834147Y-55020307D01*
X77282571Y-55184068D01*
X77759528Y-55163760D01*
X78105853Y-55020307D01*
X78181702Y-54828124D01*
X77470000Y-54116421D01*
X76758298Y-54828124D01*
X74085000Y-54828124D01*
X74085000Y-53787571D01*
X76260932Y-53787571D01*
X76281240Y-54264528D01*
X76424693Y-54610853D01*
X76616876Y-54686702D01*
X77328579Y-53975000D01*
X77611421Y-53975000D01*
X78323124Y-54686702D01*
X78515307Y-54610853D01*
X78525951Y-54581705D01*
X90038717Y-54581705D01*
X90102297Y-54763517D01*
X90514459Y-54910562D01*
X90951519Y-54888686D01*
X91253703Y-54763517D01*
X91317283Y-54581705D01*
X90678000Y-53942421D01*
X90038717Y-54581705D01*
X78525951Y-54581705D01*
X78679068Y-54162429D01*
X78658760Y-53685472D01*
X78638873Y-53637459D01*
X89568438Y-53637459D01*
X89590314Y-54074519D01*
X89715483Y-54376703D01*
X89897295Y-54440283D01*
X90536579Y-53801000D01*
X90819421Y-53801000D01*
X91458705Y-54440283D01*
X91640517Y-54376703D01*
X91787562Y-53964541D01*
X91765686Y-53527481D01*
X91640517Y-53225297D01*
X91458705Y-53161717D01*
X90819421Y-53801000D01*
X90536579Y-53801000D01*
X89897295Y-53161717D01*
X89715483Y-53225297D01*
X89568438Y-53637459D01*
X78638873Y-53637459D01*
X78515307Y-53339147D01*
X78323124Y-53263298D01*
X77611421Y-53975000D01*
X77328579Y-53975000D01*
X76616876Y-53263298D01*
X76424693Y-53339147D01*
X76260932Y-53787571D01*
X74085000Y-53787571D01*
X74085000Y-53121876D01*
X76758298Y-53121876D01*
X77470000Y-53833579D01*
X78181702Y-53121876D01*
X78141611Y-53020295D01*
X90038717Y-53020295D01*
X90678000Y-53659579D01*
X91317283Y-53020295D01*
X91253703Y-52838483D01*
X90841541Y-52691438D01*
X90404481Y-52713314D01*
X90102297Y-52838483D01*
X90038717Y-53020295D01*
X78141611Y-53020295D01*
X78105853Y-52929693D01*
X77657429Y-52765932D01*
X77180472Y-52786240D01*
X76834147Y-52929693D01*
X76758298Y-53121876D01*
X74085000Y-53121876D01*
X74085000Y-49222568D01*
X76041065Y-49222568D01*
X76227959Y-49673789D01*
X76620533Y-50089816D01*
X77142431Y-50323943D01*
X77369998Y-50245094D01*
X77369998Y-50328144D01*
X76720000Y-50328144D01*
X76583437Y-50355308D01*
X76467665Y-50432665D01*
X76390308Y-50548437D01*
X76363144Y-50685000D01*
X76363144Y-52185000D01*
X76390308Y-52321563D01*
X76467665Y-52437335D01*
X76583437Y-52514692D01*
X76720000Y-52541856D01*
X78220000Y-52541856D01*
X78356563Y-52514692D01*
X78472335Y-52437335D01*
X78549692Y-52321563D01*
X78576856Y-52185000D01*
X78576856Y-50685000D01*
X78549692Y-50548437D01*
X78472335Y-50432665D01*
X78356563Y-50355308D01*
X78220000Y-50328144D01*
X77570002Y-50328144D01*
X77570002Y-50245094D01*
X77797569Y-50323943D01*
X78319467Y-50089816D01*
X78712041Y-49673789D01*
X78898935Y-49222568D01*
X78819801Y-48995000D01*
X77570000Y-48995000D01*
X77570000Y-49015000D01*
X77370000Y-49015000D01*
X77370000Y-48995000D01*
X76120199Y-48995000D01*
X76041065Y-49222568D01*
X74085000Y-49222568D01*
X74085000Y-48567432D01*
X76041065Y-48567432D01*
X76120199Y-48795000D01*
X77370000Y-48795000D01*
X77370000Y-48775000D01*
X77570000Y-48775000D01*
X77570000Y-48795000D01*
X78819801Y-48795000D01*
X78873352Y-48641000D01*
X89285239Y-48641000D01*
X89391257Y-49173987D01*
X89693169Y-49625831D01*
X90145013Y-49927743D01*
X90543464Y-50007000D01*
X90812536Y-50007000D01*
X91210987Y-49927743D01*
X91662831Y-49625831D01*
X91752000Y-49492380D01*
X91752000Y-49746511D01*
X91820509Y-49911905D01*
X91947096Y-50038492D01*
X92112490Y-50107000D01*
X93005500Y-50107000D01*
X93118000Y-49994500D01*
X93118000Y-48741000D01*
X93318000Y-48741000D01*
X93318000Y-49994500D01*
X93430500Y-50107000D01*
X94323510Y-50107000D01*
X94488904Y-50038492D01*
X94615491Y-49911905D01*
X94684000Y-49746511D01*
X94684000Y-48853500D01*
X94571500Y-48741000D01*
X93318000Y-48741000D01*
X93118000Y-48741000D01*
X93098000Y-48741000D01*
X93098000Y-48541000D01*
X93118000Y-48541000D01*
X93118000Y-47287500D01*
X93318000Y-47287500D01*
X93318000Y-48541000D01*
X94571500Y-48541000D01*
X94684000Y-48428500D01*
X94684000Y-47535489D01*
X94615491Y-47370095D01*
X94488904Y-47243508D01*
X94323510Y-47175000D01*
X93430500Y-47175000D01*
X93318000Y-47287500D01*
X93118000Y-47287500D01*
X93005500Y-47175000D01*
X92112490Y-47175000D01*
X91947096Y-47243508D01*
X91820509Y-47370095D01*
X91752000Y-47535489D01*
X91752000Y-47789620D01*
X91662831Y-47656169D01*
X91210987Y-47354257D01*
X90812536Y-47275000D01*
X90543464Y-47275000D01*
X90145013Y-47354257D01*
X89693169Y-47656169D01*
X89391257Y-48108013D01*
X89285239Y-48641000D01*
X78873352Y-48641000D01*
X78898935Y-48567432D01*
X78712041Y-48116211D01*
X78345579Y-47727856D01*
X78486000Y-47727856D01*
X78622563Y-47700692D01*
X78738335Y-47623335D01*
X78815692Y-47507563D01*
X78842856Y-47371000D01*
X78842856Y-45339000D01*
X78815692Y-45202437D01*
X78738335Y-45086665D01*
X78633620Y-45016696D01*
X80364818Y-43285500D01*
X91339184Y-43285500D01*
X104792286Y-56738603D01*
X104822972Y-56784528D01*
X105004901Y-56906089D01*
X105165330Y-56938000D01*
X105165331Y-56938000D01*
X105219500Y-56948775D01*
X105273669Y-56938000D01*
X107197144Y-56938000D01*
X107197144Y-57038000D01*
X107224308Y-57174563D01*
X107301665Y-57290335D01*
X107417437Y-57367692D01*
X107554000Y-57394856D01*
X108854000Y-57394856D01*
X108990563Y-57367692D01*
X109106335Y-57290335D01*
X109183692Y-57174563D01*
X109210856Y-57038000D01*
X109210856Y-55738000D01*
X109183692Y-55601437D01*
X109106335Y-55485665D01*
X108990563Y-55408308D01*
X108854000Y-55381144D01*
X107554000Y-55381144D01*
X107417437Y-55408308D01*
X107301665Y-55485665D01*
X107224308Y-55601437D01*
X107197144Y-55738000D01*
X107197144Y-55838000D01*
X105447317Y-55838000D01*
X103278022Y-53668705D01*
X107564717Y-53668705D01*
X107628297Y-53850517D01*
X108040459Y-53997562D01*
X108477519Y-53975686D01*
X108779703Y-53850517D01*
X108843283Y-53668705D01*
X108204000Y-53029421D01*
X107564717Y-53668705D01*
X103278022Y-53668705D01*
X102333776Y-52724459D01*
X107094438Y-52724459D01*
X107116314Y-53161519D01*
X107241483Y-53463703D01*
X107423295Y-53527283D01*
X108062579Y-52888000D01*
X108345421Y-52888000D01*
X108984705Y-53527283D01*
X109166517Y-53463703D01*
X109313562Y-53051541D01*
X109291686Y-52614481D01*
X109166517Y-52312297D01*
X108984705Y-52248717D01*
X108345421Y-52888000D01*
X108062579Y-52888000D01*
X107423295Y-52248717D01*
X107241483Y-52312297D01*
X107094438Y-52724459D01*
X102333776Y-52724459D01*
X101716612Y-52107295D01*
X107564717Y-52107295D01*
X108204000Y-52746579D01*
X108843283Y-52107295D01*
X108779703Y-51925483D01*
X108367541Y-51778438D01*
X107930481Y-51800314D01*
X107628297Y-51925483D01*
X107564717Y-52107295D01*
X101716612Y-52107295D01*
X93944317Y-44335000D01*
X108113144Y-44335000D01*
X108113144Y-45835000D01*
X108140308Y-45971563D01*
X108217665Y-46087335D01*
X108333437Y-46164692D01*
X108470000Y-46191856D01*
X109970000Y-46191856D01*
X110106563Y-46164692D01*
X110222335Y-46087335D01*
X110249539Y-46046621D01*
X110591763Y-46388845D01*
X110639184Y-46459816D01*
X110920347Y-46647682D01*
X111168285Y-46697000D01*
X111168286Y-46697000D01*
X111252000Y-46713652D01*
X111335714Y-46697000D01*
X117264286Y-46697000D01*
X117348000Y-46713652D01*
X117431714Y-46697000D01*
X117431715Y-46697000D01*
X117679653Y-46647682D01*
X117960816Y-46459816D01*
X118008239Y-46388842D01*
X120556845Y-43840237D01*
X120627816Y-43792816D01*
X120751824Y-43607223D01*
X121062941Y-43478355D01*
X121583355Y-42957941D01*
X121865000Y-42277988D01*
X121865000Y-41542012D01*
X121583355Y-40862059D01*
X121062941Y-40341645D01*
X120382988Y-40060000D01*
X119647012Y-40060000D01*
X118967059Y-40341645D01*
X118446645Y-40862059D01*
X118269176Y-41290507D01*
X118259184Y-41297184D01*
X118211763Y-41368155D01*
X116233919Y-43346000D01*
X111462714Y-43346000D01*
X111379000Y-43329348D01*
X111295286Y-43346000D01*
X111295285Y-43346000D01*
X111047347Y-43395318D01*
X110766184Y-43583184D01*
X110718763Y-43654155D01*
X110249539Y-44123379D01*
X110222335Y-44082665D01*
X110106563Y-44005308D01*
X109970000Y-43978144D01*
X108470000Y-43978144D01*
X108333437Y-44005308D01*
X108217665Y-44082665D01*
X108140308Y-44198437D01*
X108113144Y-44335000D01*
X93944317Y-44335000D01*
X91994216Y-42384900D01*
X91963528Y-42338972D01*
X91781599Y-42217411D01*
X91621170Y-42185500D01*
X91621169Y-42185500D01*
X91567000Y-42174725D01*
X91512831Y-42185500D01*
X80191169Y-42185500D01*
X80137000Y-42174725D01*
X80082831Y-42185500D01*
X80082830Y-42185500D01*
X79922401Y-42217411D01*
X79740472Y-42338972D01*
X79709788Y-42384894D01*
X77119398Y-44975286D01*
X77109134Y-44982144D01*
X76454000Y-44982144D01*
X76317437Y-45009308D01*
X76201665Y-45086665D01*
X76124308Y-45202437D01*
X76097144Y-45339000D01*
X76097144Y-47371000D01*
X76124308Y-47507563D01*
X76201665Y-47623335D01*
X76317437Y-47700692D01*
X76454000Y-47727856D01*
X76594421Y-47727856D01*
X76227959Y-48116211D01*
X76041065Y-48567432D01*
X74085000Y-48567432D01*
X74085000Y-38620000D01*
X82713144Y-38620000D01*
X82713144Y-40120000D01*
X82740308Y-40256563D01*
X82817665Y-40372335D01*
X82933437Y-40449692D01*
X83070000Y-40476856D01*
X84570000Y-40476856D01*
X84706563Y-40449692D01*
X84822335Y-40372335D01*
X84899692Y-40256563D01*
X84906343Y-40223124D01*
X85648298Y-40223124D01*
X85724147Y-40415307D01*
X86172571Y-40579068D01*
X86649528Y-40558760D01*
X86995853Y-40415307D01*
X87071702Y-40223124D01*
X86360000Y-39511421D01*
X85648298Y-40223124D01*
X84906343Y-40223124D01*
X84926856Y-40120000D01*
X84926856Y-39182571D01*
X85150932Y-39182571D01*
X85171240Y-39659528D01*
X85314693Y-40005853D01*
X85506876Y-40081702D01*
X86218579Y-39370000D01*
X86501421Y-39370000D01*
X87213124Y-40081702D01*
X87405307Y-40005853D01*
X87569068Y-39557429D01*
X87551772Y-39151196D01*
X87800000Y-39151196D01*
X87800000Y-39588804D01*
X87967465Y-39993100D01*
X88276900Y-40302535D01*
X88681196Y-40470000D01*
X89118804Y-40470000D01*
X89523100Y-40302535D01*
X89832535Y-39993100D01*
X90000000Y-39588804D01*
X90000000Y-39151196D01*
X89832535Y-38746900D01*
X89523759Y-38438124D01*
X108508298Y-38438124D01*
X108584147Y-38630307D01*
X109032571Y-38794068D01*
X109509528Y-38773760D01*
X109855853Y-38630307D01*
X109931702Y-38438124D01*
X109220000Y-37726421D01*
X108508298Y-38438124D01*
X89523759Y-38438124D01*
X89523100Y-38437465D01*
X89118804Y-38270000D01*
X88681196Y-38270000D01*
X88276900Y-38437465D01*
X87967465Y-38746900D01*
X87800000Y-39151196D01*
X87551772Y-39151196D01*
X87548760Y-39080472D01*
X87405307Y-38734147D01*
X87213124Y-38658298D01*
X86501421Y-39370000D01*
X86218579Y-39370000D01*
X85506876Y-38658298D01*
X85314693Y-38734147D01*
X85150932Y-39182571D01*
X84926856Y-39182571D01*
X84926856Y-38620000D01*
X84906344Y-38516876D01*
X85648298Y-38516876D01*
X86360000Y-39228579D01*
X87071702Y-38516876D01*
X86995853Y-38324693D01*
X86547429Y-38160932D01*
X86070472Y-38181240D01*
X85724147Y-38324693D01*
X85648298Y-38516876D01*
X84906344Y-38516876D01*
X84899692Y-38483437D01*
X84822335Y-38367665D01*
X84706563Y-38290308D01*
X84570000Y-38263144D01*
X83070000Y-38263144D01*
X82933437Y-38290308D01*
X82817665Y-38367665D01*
X82740308Y-38483437D01*
X82713144Y-38620000D01*
X74085000Y-38620000D01*
X74085000Y-37397571D01*
X108010932Y-37397571D01*
X108031240Y-37874528D01*
X108174693Y-38220853D01*
X108366876Y-38296702D01*
X109078579Y-37585000D01*
X109361421Y-37585000D01*
X110073124Y-38296702D01*
X110265307Y-38220853D01*
X110429068Y-37772429D01*
X110408760Y-37295472D01*
X110265307Y-36949147D01*
X110073124Y-36873298D01*
X109361421Y-37585000D01*
X109078579Y-37585000D01*
X108366876Y-36873298D01*
X108174693Y-36949147D01*
X108010932Y-37397571D01*
X74085000Y-37397571D01*
X74085000Y-36731876D01*
X108508298Y-36731876D01*
X109220000Y-37443579D01*
X109931702Y-36731876D01*
X109855853Y-36539693D01*
X109407429Y-36375932D01*
X108930472Y-36396240D01*
X108584147Y-36539693D01*
X108508298Y-36731876D01*
X74085000Y-36731876D01*
X74085000Y-36675549D01*
X74340732Y-36678719D01*
X75689045Y-36139711D01*
X75765756Y-36088455D01*
X76140263Y-35641685D01*
X75409855Y-34911277D01*
X75551277Y-34769855D01*
X76281685Y-35500263D01*
X76728455Y-35125756D01*
X77300720Y-33791217D01*
X77305012Y-33445000D01*
X120804451Y-33445000D01*
X120801281Y-33700732D01*
G04 #@! TD*
M02*
