G04 #@! TF.GenerationSoftware,KiCad,Pcbnew,(5.0.0)*
G04 #@! TF.CreationDate,2018-08-29T15:59:37+03:00*
G04 #@! TF.ProjectId,RDC2-0034A,524443322D30303334412E6B69636164,rev?*
G04 #@! TF.SameCoordinates,Original*
G04 #@! TF.FileFunction,Soldermask,Bot*
G04 #@! TF.FilePolarity,Negative*
%FSLAX46Y46*%
G04 Gerber Fmt 4.6, Leading zero omitted, Abs format (unit mm)*
G04 Created by KiCad (PCBNEW (5.0.0)) date 08/29/18 15:59:37*
%MOMM*%
%LPD*%
G01*
G04 APERTURE LIST*
%ADD10C,3.400000*%
%ADD11C,5.600000*%
%ADD12R,1.700000X1.700000*%
%ADD13C,1.700000*%
%ADD14R,1.900000X1.900000*%
%ADD15C,1.900000*%
%ADD16C,6.800000*%
%ADD17R,2.432000X2.432000*%
%ADD18O,2.432000X2.432000*%
%ADD19C,0.254000*%
G04 APERTURE END LIST*
D10*
G04 #@! TO.C,P11*
X120015000Y-50927000D03*
G04 #@! TD*
G04 #@! TO.C,P12*
X120015000Y-56515000D03*
G04 #@! TD*
G04 #@! TO.C,P13*
X120015000Y-111125000D03*
G04 #@! TD*
G04 #@! TO.C,P14*
X120015000Y-116840000D03*
G04 #@! TD*
D11*
G04 #@! TO.C,REF\002A\002A*
X120015000Y-104775000D03*
X78105000Y-62865000D03*
G04 #@! TD*
D12*
G04 #@! TO.C,C13*
X90678000Y-58801000D03*
D13*
X90678000Y-53801000D03*
G04 #@! TD*
D12*
G04 #@! TO.C,C14*
X107442000Y-60706000D03*
D13*
X107442000Y-62706000D03*
G04 #@! TD*
G04 #@! TO.C,C15*
X108204000Y-52888000D03*
D12*
X108204000Y-56388000D03*
G04 #@! TD*
D14*
G04 #@! TO.C,C20*
X109220000Y-45085000D03*
D15*
X109220000Y-37585000D03*
G04 #@! TD*
D14*
G04 #@! TO.C,C21*
X109220000Y-121920000D03*
D15*
X109220000Y-129420000D03*
G04 #@! TD*
D10*
G04 #@! TO.C,P4*
X120015000Y-41910000D03*
G04 #@! TD*
G04 #@! TO.C,P5*
X120650000Y-125730000D03*
G04 #@! TD*
D14*
G04 #@! TO.C,P1*
X77470000Y-51435000D03*
D15*
X77470000Y-53975000D03*
X77470000Y-56515000D03*
G04 #@! TD*
D14*
G04 #@! TO.C,P2*
X77470000Y-111125000D03*
D15*
X77470000Y-113665000D03*
X77470000Y-116205000D03*
G04 #@! TD*
D14*
G04 #@! TO.C,P3*
X83820000Y-39370000D03*
D15*
X86360000Y-39370000D03*
X88900000Y-39370000D03*
G04 #@! TD*
G04 #@! TO.C,P6*
X117348000Y-62611000D03*
G04 #@! TD*
G04 #@! TO.C,P7*
X119380000Y-74930000D03*
G04 #@! TD*
G04 #@! TO.C,P8*
X119380000Y-91440000D03*
G04 #@! TD*
G04 #@! TO.C,P9*
X108775500Y-104584500D03*
G04 #@! TD*
G04 #@! TO.C,P10*
X95504000Y-104648000D03*
G04 #@! TD*
D16*
G04 #@! TO.C,REF\002A\002A*
X73660000Y-33020000D03*
G04 #@! TD*
G04 #@! TO.C,REF\002A\002A*
X124460000Y-33020000D03*
G04 #@! TD*
G04 #@! TO.C,REF\002A\002A*
X73660000Y-134620000D03*
G04 #@! TD*
G04 #@! TO.C,REF\002A\002A*
X124460000Y-134620000D03*
G04 #@! TD*
D17*
G04 #@! TO.C,REF\002A\002A*
X93218000Y-48641000D03*
D18*
X90678000Y-48641000D03*
G04 #@! TD*
D17*
G04 #@! TO.C,REF\002A\002A*
X77470000Y-46355000D03*
D18*
X77470000Y-48895000D03*
G04 #@! TD*
D19*
G36*
X106937677Y-84720255D02*
X107037733Y-84760277D01*
X107110333Y-84812134D01*
X107178463Y-84868909D01*
X114595008Y-92285454D01*
X114634444Y-92344608D01*
X114652270Y-92380260D01*
X114660576Y-92405178D01*
X114668300Y-92436074D01*
X114668300Y-105272840D01*
X114677967Y-105321441D01*
X114705497Y-105362643D01*
X120282133Y-110939279D01*
X119090517Y-111471251D01*
X113225996Y-105606730D01*
X113198155Y-105541768D01*
X113178415Y-105492417D01*
X113167972Y-105429761D01*
X113167234Y-105425733D01*
X113157000Y-105374563D01*
X113157000Y-93169740D01*
X113147333Y-93121139D01*
X113119803Y-93079937D01*
X106172903Y-86133037D01*
X106131701Y-86105507D01*
X106083100Y-86095840D01*
X100269434Y-86095840D01*
X100196526Y-86077613D01*
X100144829Y-86051765D01*
X100043733Y-85970888D01*
X100008256Y-85917672D01*
X99979927Y-85861014D01*
X99961700Y-85788106D01*
X99961700Y-85733877D01*
X99972361Y-85627267D01*
X99989306Y-85576431D01*
X100025428Y-85513218D01*
X100038803Y-85499843D01*
X100066333Y-85458641D01*
X100076000Y-85410040D01*
X100066333Y-85361439D01*
X100038803Y-85320237D01*
X100015274Y-85296708D01*
X99990430Y-85247020D01*
X99971034Y-85188831D01*
X99961700Y-85132829D01*
X99961700Y-85055682D01*
X99981504Y-84966565D01*
X100010338Y-84899285D01*
X100043733Y-84849192D01*
X100091836Y-84810710D01*
X100093803Y-84809104D01*
X100153457Y-84759393D01*
X100228123Y-84731393D01*
X100307534Y-84711540D01*
X106885389Y-84711540D01*
X106937677Y-84720255D01*
X106937677Y-84720255D01*
G37*
X106937677Y-84720255D02*
X107037733Y-84760277D01*
X107110333Y-84812134D01*
X107178463Y-84868909D01*
X114595008Y-92285454D01*
X114634444Y-92344608D01*
X114652270Y-92380260D01*
X114660576Y-92405178D01*
X114668300Y-92436074D01*
X114668300Y-105272840D01*
X114677967Y-105321441D01*
X114705497Y-105362643D01*
X120282133Y-110939279D01*
X119090517Y-111471251D01*
X113225996Y-105606730D01*
X113198155Y-105541768D01*
X113178415Y-105492417D01*
X113167972Y-105429761D01*
X113167234Y-105425733D01*
X113157000Y-105374563D01*
X113157000Y-93169740D01*
X113147333Y-93121139D01*
X113119803Y-93079937D01*
X106172903Y-86133037D01*
X106131701Y-86105507D01*
X106083100Y-86095840D01*
X100269434Y-86095840D01*
X100196526Y-86077613D01*
X100144829Y-86051765D01*
X100043733Y-85970888D01*
X100008256Y-85917672D01*
X99979927Y-85861014D01*
X99961700Y-85788106D01*
X99961700Y-85733877D01*
X99972361Y-85627267D01*
X99989306Y-85576431D01*
X100025428Y-85513218D01*
X100038803Y-85499843D01*
X100066333Y-85458641D01*
X100076000Y-85410040D01*
X100066333Y-85361439D01*
X100038803Y-85320237D01*
X100015274Y-85296708D01*
X99990430Y-85247020D01*
X99971034Y-85188831D01*
X99961700Y-85132829D01*
X99961700Y-85055682D01*
X99981504Y-84966565D01*
X100010338Y-84899285D01*
X100043733Y-84849192D01*
X100091836Y-84810710D01*
X100093803Y-84809104D01*
X100153457Y-84759393D01*
X100228123Y-84731393D01*
X100307534Y-84711540D01*
X106885389Y-84711540D01*
X106937677Y-84720255D01*
G36*
X103770373Y-87267281D02*
X103828134Y-87286535D01*
X103889690Y-87312916D01*
X103935897Y-87359123D01*
X111772754Y-95221259D01*
X111785400Y-107589450D01*
X111795117Y-107638041D01*
X111822597Y-107679123D01*
X120072446Y-115928972D01*
X119078570Y-117141284D01*
X110336858Y-108399572D01*
X110271207Y-108290154D01*
X110257721Y-108263181D01*
X110248700Y-108191016D01*
X110248700Y-106449254D01*
X110269124Y-106367558D01*
X110292983Y-106295981D01*
X110299500Y-106255820D01*
X110299500Y-95905320D01*
X110289833Y-95856719D01*
X110262303Y-95815517D01*
X103124903Y-88678117D01*
X103083701Y-88650587D01*
X103035100Y-88640920D01*
X100251430Y-88640920D01*
X100177629Y-88613244D01*
X100100432Y-88574646D01*
X100067652Y-88541866D01*
X100006711Y-88470768D01*
X99971449Y-88391429D01*
X99961700Y-88303688D01*
X99961700Y-88234397D01*
X99970925Y-88188270D01*
X99993129Y-88110556D01*
X100006436Y-88077290D01*
X100038803Y-88044923D01*
X100066333Y-88003721D01*
X100076000Y-87955120D01*
X100066333Y-87906519D01*
X100052344Y-87881303D01*
X99994636Y-87800511D01*
X99980685Y-87772610D01*
X99961700Y-87687178D01*
X99961700Y-87595849D01*
X99970749Y-87532506D01*
X99999368Y-87465728D01*
X100038128Y-87397898D01*
X100089727Y-87346299D01*
X100178159Y-87297171D01*
X100243161Y-87275503D01*
X100253388Y-87269182D01*
X103663995Y-87256643D01*
X103770373Y-87267281D01*
X103770373Y-87267281D01*
G37*
X103770373Y-87267281D02*
X103828134Y-87286535D01*
X103889690Y-87312916D01*
X103935897Y-87359123D01*
X111772754Y-95221259D01*
X111785400Y-107589450D01*
X111795117Y-107638041D01*
X111822597Y-107679123D01*
X120072446Y-115928972D01*
X119078570Y-117141284D01*
X110336858Y-108399572D01*
X110271207Y-108290154D01*
X110257721Y-108263181D01*
X110248700Y-108191016D01*
X110248700Y-106449254D01*
X110269124Y-106367558D01*
X110292983Y-106295981D01*
X110299500Y-106255820D01*
X110299500Y-95905320D01*
X110289833Y-95856719D01*
X110262303Y-95815517D01*
X103124903Y-88678117D01*
X103083701Y-88650587D01*
X103035100Y-88640920D01*
X100251430Y-88640920D01*
X100177629Y-88613244D01*
X100100432Y-88574646D01*
X100067652Y-88541866D01*
X100006711Y-88470768D01*
X99971449Y-88391429D01*
X99961700Y-88303688D01*
X99961700Y-88234397D01*
X99970925Y-88188270D01*
X99993129Y-88110556D01*
X100006436Y-88077290D01*
X100038803Y-88044923D01*
X100066333Y-88003721D01*
X100076000Y-87955120D01*
X100066333Y-87906519D01*
X100052344Y-87881303D01*
X99994636Y-87800511D01*
X99980685Y-87772610D01*
X99961700Y-87687178D01*
X99961700Y-87595849D01*
X99970749Y-87532506D01*
X99999368Y-87465728D01*
X100038128Y-87397898D01*
X100089727Y-87346299D01*
X100178159Y-87297171D01*
X100243161Y-87275503D01*
X100253388Y-87269182D01*
X103663995Y-87256643D01*
X103770373Y-87267281D01*
G36*
X120381913Y-56959326D02*
X120364593Y-57051701D01*
X120296342Y-57158952D01*
X114591197Y-62864097D01*
X114563667Y-62905299D01*
X114554000Y-62953775D01*
X114541300Y-75844275D01*
X114541300Y-75855858D01*
X114522315Y-75941290D01*
X114475000Y-76035920D01*
X107155336Y-83368248D01*
X107070160Y-83432130D01*
X106992790Y-83470815D01*
X106907358Y-83489800D01*
X100277011Y-83489800D01*
X100223346Y-83480856D01*
X100148927Y-83452949D01*
X100086182Y-83408131D01*
X100026236Y-83338194D01*
X99979348Y-83263173D01*
X99960164Y-83176848D01*
X99950554Y-83090351D01*
X99967560Y-83013823D01*
X100048120Y-82864211D01*
X100062650Y-82816836D01*
X100057944Y-82767507D01*
X100046567Y-82740990D01*
X99997511Y-82655142D01*
X99959418Y-82578956D01*
X99950207Y-82459208D01*
X99968516Y-82385969D01*
X100008309Y-82286488D01*
X100060782Y-82225269D01*
X100129009Y-82176536D01*
X100210447Y-82135817D01*
X100321608Y-82105500D01*
X103251000Y-82105500D01*
X103291161Y-82098983D01*
X103309432Y-82092893D01*
X106120630Y-82105499D01*
X106169274Y-82096049D01*
X106211250Y-82068055D01*
X113107350Y-75133855D01*
X113134766Y-75092577D01*
X113144300Y-75044448D01*
X113157000Y-64160548D01*
X113157000Y-62263304D01*
X113167400Y-62180108D01*
X113198494Y-62076461D01*
X113246782Y-61989542D01*
X119044280Y-56154479D01*
X120381913Y-56959326D01*
X120381913Y-56959326D01*
G37*
X120381913Y-56959326D02*
X120364593Y-57051701D01*
X120296342Y-57158952D01*
X114591197Y-62864097D01*
X114563667Y-62905299D01*
X114554000Y-62953775D01*
X114541300Y-75844275D01*
X114541300Y-75855858D01*
X114522315Y-75941290D01*
X114475000Y-76035920D01*
X107155336Y-83368248D01*
X107070160Y-83432130D01*
X106992790Y-83470815D01*
X106907358Y-83489800D01*
X100277011Y-83489800D01*
X100223346Y-83480856D01*
X100148927Y-83452949D01*
X100086182Y-83408131D01*
X100026236Y-83338194D01*
X99979348Y-83263173D01*
X99960164Y-83176848D01*
X99950554Y-83090351D01*
X99967560Y-83013823D01*
X100048120Y-82864211D01*
X100062650Y-82816836D01*
X100057944Y-82767507D01*
X100046567Y-82740990D01*
X99997511Y-82655142D01*
X99959418Y-82578956D01*
X99950207Y-82459208D01*
X99968516Y-82385969D01*
X100008309Y-82286488D01*
X100060782Y-82225269D01*
X100129009Y-82176536D01*
X100210447Y-82135817D01*
X100321608Y-82105500D01*
X103251000Y-82105500D01*
X103291161Y-82098983D01*
X103309432Y-82092893D01*
X106120630Y-82105499D01*
X106169274Y-82096049D01*
X106211250Y-82068055D01*
X113107350Y-75133855D01*
X113134766Y-75092577D01*
X113144300Y-75044448D01*
X113157000Y-64160548D01*
X113157000Y-62263304D01*
X113167400Y-62180108D01*
X113198494Y-62076461D01*
X113246782Y-61989542D01*
X119044280Y-56154479D01*
X120381913Y-56959326D01*
G36*
X119603794Y-51781001D02*
X111111331Y-60286064D01*
X111087608Y-60319004D01*
X111074908Y-60344404D01*
X111061500Y-60401200D01*
X111061500Y-73355323D01*
X111040853Y-73458558D01*
X111004085Y-73550478D01*
X103720076Y-80821819D01*
X103719997Y-80821897D01*
X103645668Y-80896226D01*
X103573753Y-80932183D01*
X103462839Y-80962433D01*
X100267002Y-80949801D01*
X100266500Y-80949800D01*
X100251430Y-80949800D01*
X100183314Y-80924256D01*
X100104777Y-80875171D01*
X100047692Y-80818086D01*
X100009866Y-80761347D01*
X99967933Y-80666997D01*
X99961700Y-80642066D01*
X99961700Y-80575832D01*
X99972137Y-80481899D01*
X99979401Y-80460107D01*
X99998508Y-80412341D01*
X100014612Y-80388184D01*
X100050600Y-80340200D01*
X100072027Y-80295519D01*
X100074724Y-80246039D01*
X100058280Y-80199294D01*
X100038803Y-80174197D01*
X100015274Y-80150668D01*
X99968599Y-80057318D01*
X99959926Y-80013953D01*
X99950129Y-79945373D01*
X99958690Y-79876885D01*
X99998508Y-79777341D01*
X100034992Y-79722614D01*
X100124119Y-79633487D01*
X100230789Y-79585001D01*
X100318542Y-79565500D01*
X102717600Y-79565500D01*
X102766201Y-79555833D01*
X102807485Y-79528220D01*
X109690885Y-72632120D01*
X109718377Y-72590893D01*
X109728000Y-72542400D01*
X109728000Y-60185177D01*
X109747599Y-60087182D01*
X109787256Y-60007868D01*
X109826692Y-59948714D01*
X119032721Y-50742685D01*
X119603794Y-51781001D01*
X119603794Y-51781001D01*
G37*
X119603794Y-51781001D02*
X111111331Y-60286064D01*
X111087608Y-60319004D01*
X111074908Y-60344404D01*
X111061500Y-60401200D01*
X111061500Y-73355323D01*
X111040853Y-73458558D01*
X111004085Y-73550478D01*
X103720076Y-80821819D01*
X103719997Y-80821897D01*
X103645668Y-80896226D01*
X103573753Y-80932183D01*
X103462839Y-80962433D01*
X100267002Y-80949801D01*
X100266500Y-80949800D01*
X100251430Y-80949800D01*
X100183314Y-80924256D01*
X100104777Y-80875171D01*
X100047692Y-80818086D01*
X100009866Y-80761347D01*
X99967933Y-80666997D01*
X99961700Y-80642066D01*
X99961700Y-80575832D01*
X99972137Y-80481899D01*
X99979401Y-80460107D01*
X99998508Y-80412341D01*
X100014612Y-80388184D01*
X100050600Y-80340200D01*
X100072027Y-80295519D01*
X100074724Y-80246039D01*
X100058280Y-80199294D01*
X100038803Y-80174197D01*
X100015274Y-80150668D01*
X99968599Y-80057318D01*
X99959926Y-80013953D01*
X99950129Y-79945373D01*
X99958690Y-79876885D01*
X99998508Y-79777341D01*
X100034992Y-79722614D01*
X100124119Y-79633487D01*
X100230789Y-79585001D01*
X100318542Y-79565500D01*
X102717600Y-79565500D01*
X102766201Y-79555833D01*
X102807485Y-79528220D01*
X109690885Y-72632120D01*
X109718377Y-72590893D01*
X109728000Y-72542400D01*
X109728000Y-60185177D01*
X109747599Y-60087182D01*
X109787256Y-60007868D01*
X109826692Y-59948714D01*
X119032721Y-50742685D01*
X119603794Y-51781001D01*
G36*
X120361166Y-43325176D02*
X120349054Y-43355455D01*
X120302131Y-43411763D01*
X120255397Y-43458497D01*
X120251228Y-43462871D01*
X120126278Y-43600316D01*
X117564868Y-46161726D01*
X117540580Y-46173870D01*
X117404241Y-46219317D01*
X117360823Y-46228000D01*
X111193589Y-46228000D01*
X111136566Y-46211708D01*
X111067873Y-46172455D01*
X110979824Y-46106418D01*
X110884603Y-46011197D01*
X110883487Y-46010096D01*
X110362787Y-45502096D01*
X110321249Y-45475076D01*
X110274100Y-45466000D01*
X109982000Y-45466000D01*
X109982000Y-44704000D01*
X110286800Y-44704000D01*
X110335401Y-44694333D01*
X110376603Y-44666803D01*
X111140248Y-43903158D01*
X111186166Y-43875607D01*
X111249920Y-43843730D01*
X111305634Y-43825159D01*
X111386904Y-43815000D01*
X116382800Y-43815000D01*
X116431401Y-43805333D01*
X116472603Y-43777803D01*
X118440120Y-41810286D01*
X118641732Y-41617440D01*
X120361166Y-43325176D01*
X120361166Y-43325176D01*
G37*
X120361166Y-43325176D02*
X120349054Y-43355455D01*
X120302131Y-43411763D01*
X120255397Y-43458497D01*
X120251228Y-43462871D01*
X120126278Y-43600316D01*
X117564868Y-46161726D01*
X117540580Y-46173870D01*
X117404241Y-46219317D01*
X117360823Y-46228000D01*
X111193589Y-46228000D01*
X111136566Y-46211708D01*
X111067873Y-46172455D01*
X110979824Y-46106418D01*
X110884603Y-46011197D01*
X110883487Y-46010096D01*
X110362787Y-45502096D01*
X110321249Y-45475076D01*
X110274100Y-45466000D01*
X109982000Y-45466000D01*
X109982000Y-44704000D01*
X110286800Y-44704000D01*
X110335401Y-44694333D01*
X110376603Y-44666803D01*
X111140248Y-43903158D01*
X111186166Y-43875607D01*
X111249920Y-43843730D01*
X111305634Y-43825159D01*
X111386904Y-43815000D01*
X116382800Y-43815000D01*
X116431401Y-43805333D01*
X116472603Y-43777803D01*
X118440120Y-41810286D01*
X118641732Y-41617440D01*
X120361166Y-43325176D01*
G36*
X108742149Y-105301845D02*
X107974497Y-106069497D01*
X107946967Y-106110699D01*
X107937300Y-106159421D01*
X107950000Y-119481721D01*
X107959714Y-119530313D01*
X107986535Y-119570735D01*
X108831431Y-120428242D01*
X108928234Y-120557312D01*
X108954380Y-120635750D01*
X108966000Y-120856531D01*
X108966000Y-121081800D01*
X108975667Y-121130401D01*
X109003197Y-121171603D01*
X109167394Y-121335800D01*
X108586931Y-121916263D01*
X108384593Y-121705128D01*
X108343986Y-121676728D01*
X108295602Y-121666029D01*
X108232689Y-121681180D01*
X108079694Y-121763562D01*
X108021111Y-121780300D01*
X107869010Y-121780300D01*
X107817367Y-121763086D01*
X107747322Y-121733066D01*
X107715924Y-121709518D01*
X105940492Y-119934086D01*
X105903138Y-119878055D01*
X105873640Y-119809227D01*
X105854500Y-119732666D01*
X105854500Y-106800240D01*
X105882677Y-106706316D01*
X105942467Y-106606666D01*
X108062681Y-104510822D01*
X108742149Y-105301845D01*
X108742149Y-105301845D01*
G37*
X108742149Y-105301845D02*
X107974497Y-106069497D01*
X107946967Y-106110699D01*
X107937300Y-106159421D01*
X107950000Y-119481721D01*
X107959714Y-119530313D01*
X107986535Y-119570735D01*
X108831431Y-120428242D01*
X108928234Y-120557312D01*
X108954380Y-120635750D01*
X108966000Y-120856531D01*
X108966000Y-121081800D01*
X108975667Y-121130401D01*
X109003197Y-121171603D01*
X109167394Y-121335800D01*
X108586931Y-121916263D01*
X108384593Y-121705128D01*
X108343986Y-121676728D01*
X108295602Y-121666029D01*
X108232689Y-121681180D01*
X108079694Y-121763562D01*
X108021111Y-121780300D01*
X107869010Y-121780300D01*
X107817367Y-121763086D01*
X107747322Y-121733066D01*
X107715924Y-121709518D01*
X105940492Y-119934086D01*
X105903138Y-119878055D01*
X105873640Y-119809227D01*
X105854500Y-119732666D01*
X105854500Y-106800240D01*
X105882677Y-106706316D01*
X105942467Y-106606666D01*
X108062681Y-104510822D01*
X108742149Y-105301845D01*
M02*
