M48
;DRILL file {KiCad (5.0.0)} date 08/29/18 15:59:43
;FORMAT={-:-/ absolute / metric / decimal}
FMAT,2
METRIC,TZ
T1C0.300
T2C0.500
T3C0.800
T4C0.900
T5C1.000
T6C1.016
T7C1.500
T8C3.200
%
G90
G05
M71
T1
X73.66Y-134.62
X74.676Y-74.549
X74.676Y-77.851
X74.676Y-81.026
X74.676Y-83.947
X74.676Y-87.376
X74.676Y-90.297
X74.676Y-92.964
X74.676Y-96.012
X74.803Y-70.739
X74.803Y-98.933
X74.93Y-44.704
X74.93Y-46.863
X74.93Y-49.53
X74.93Y-52.07
X74.93Y-54.61
X74.93Y-57.15
X74.93Y-59.69
X75.057Y-118.491
X75.057Y-123.063
X75.057Y-126.365
X75.057Y-129.159
X75.184Y-115.316
X75.819Y-108.204
X76.2Y-38.1
X76.2Y-40.64
X76.2Y-43.18
X77.597Y-130.937
X77.851Y-70.739
X78.359Y-88.9
X78.422Y-101.219
X78.676Y-78.676
X78.74Y-35.56
X79.248Y-133.096
X80.137Y-78.74
X80.137Y-113.665
X80.391Y-67.564
X80.645Y-95.25
X81.788Y-101.219
X82.296Y-34.544
X82.804Y-71.374
X82.804Y-74.803
X82.804Y-78.232
X82.804Y-81.534
X82.804Y-84.201
X82.931Y-67.691
X82.931Y-86.487
X83.82Y-113.665
X84.328Y-133.096
X85.598Y-102.616
X86.487Y-41.91
X86.487Y-45.339
X86.487Y-91.567
X86.614Y-55.626
X86.614Y-58.674
X86.741Y-61.468
X86.741Y-66.802
X86.741Y-69.85
X86.741Y-74.041
X86.995Y-113.665
X88.011Y-91.694
X88.011Y-93.853
X88.011Y-96.139
X88.138Y-75.819
X88.138Y-89.789
X88.138Y-98.552
X88.138Y-100.203
X88.138Y-102.362
X88.316Y-85.42
X88.646Y-34.544
X88.773Y-55.626
X88.9Y-112.395
X89.154Y-60.833
X89.408Y-68.707
X89.408Y-72.136
X89.408Y-116.586
X89.408Y-119.634
X89.408Y-122.428
X89.408Y-128.27
X89.408Y-133.096
X89.535Y-81.534
X89.535Y-83.439
X89.535Y-107.315
X89.535Y-109.855
X89.992Y-85.484
X90.17Y-105.41
X90.297Y-74.422
X90.297Y-91.567
X90.297Y-93.345
X90.297Y-95.123
X90.297Y-97.409
X90.297Y-100.076
X90.297Y-102.616
X90.424Y-75.819
X90.424Y-78.105
X91.44Y-68.707
X91.656Y-84.582
X92.202Y-82.804
X92.202Y-95.25
X92.202Y-97.155
X92.202Y-99.695
X92.202Y-103.632
X92.202Y-107.315
X92.202Y-110.49
X92.329Y-113.919
X92.837Y-75.692
X92.837Y-89.916
X92.837Y-91.567
X92.837Y-93.599
X92.939Y-84.557
X93.726Y-133.096
X94.234Y-34.544
X94.742Y-75.184
X94.742Y-92.456
X95.25Y-68.834
X95.25Y-73.66
X95.885Y-41.529
X95.885Y-44.577
X96.266Y-66.548
X96.622Y-87.16
X96.761Y-84.988
X96.787Y-84.379
X96.799Y-81.077
X96.863Y-82.702
X97.028Y-90.805
X97.536Y-88.9
X97.536Y-101.346
X97.701Y-82.728
X97.701Y-85.065
X97.701Y-87.122
X97.714Y-81.051
X97.714Y-84.303
X97.79Y-133.096
X97.917Y-73.406
X98.425Y-94.615
X98.679Y-63.881
X99.695Y-73.406
X100.838Y-34.544
X100.965Y-49.784
X100.965Y-74.676
X100.965Y-93.345
X100.965Y-95.885
X101.155Y-91.021
X101.173Y-89.362
X101.181Y-76.276
X101.181Y-77.013
X101.181Y-77.953
X101.181Y-78.791
X101.181Y-90.132
X101.6Y-133.096
X101.803Y-91.694
X101.981Y-72.39
X102.87Y-97.155
X102.997Y-67.183
X102.997Y-70.231
X103.505Y-104.775
X103.505Y-110.49
X103.505Y-116.205
X103.505Y-121.92
X103.759Y-72.517
X105.474Y-93.548
X105.537Y-95.186
X105.613Y-75.654
X105.626Y-74.511
X105.639Y-72.695
X105.664Y-64.389
X106.68Y-88.265
X107.188Y-34.544
X107.315Y-101.6
X107.315Y-127.635
X107.95Y-89.535
X107.95Y-96.52
X108.966Y-77.597
X109.22Y-83.185
X109.22Y-85.09
X109.855Y-91.44
X110.617Y-75.819
X111.76Y-93.345
X111.887Y-84.201
X112.014Y-73.914
X112.141Y-66.294
X112.141Y-69.596
X112.141Y-87.757
X112.268Y-61.722
X112.395Y-94.234
X113.538Y-34.544
X113.919Y-89.535
X114.554Y-83.058
X114.554Y-84.963
X115.951Y-91.694
X116.205Y-95.25
X116.332Y-133.096
X118.364Y-34.544
X120.269Y-36.449
X121.285Y-131.318
X122.682Y-38.735
X122.682Y-62.23
X122.682Y-66.675
X122.682Y-73.914
X122.809Y-82.423
X122.936Y-84.963
X122.936Y-91.567
X122.936Y-95.25
X122.936Y-99.06
T2
X100.325Y-83.185
X100.325Y-85.725
X100.33Y-79.947
X100.33Y-80.65
X100.33Y-82.486
X100.33Y-85.026
X100.33Y-87.566
X100.33Y-88.27
X101.021Y-88.27
X101.026Y-83.185
X101.028Y-79.947
X101.028Y-82.486
X101.028Y-85.026
X101.028Y-87.566
X101.03Y-80.65
X101.031Y-85.725
X104.331Y-88.201
X104.394Y-79.629
X104.902Y-89.027
X105.029Y-78.994
X105.029Y-83.121
X105.029Y-85.026
X105.74Y-83.129
X105.745Y-85.034
T3
X119.38Y-91.44
X107.442Y-60.706
X107.442Y-62.706
X95.504Y-104.648
X119.38Y-74.93
X90.678Y-53.801
X90.678Y-58.801
X108.775Y-104.584
X108.204Y-52.888
X108.204Y-56.388
X117.348Y-62.611
T4
X77.47Y-51.435
X77.47Y-53.975
X77.47Y-56.515
X83.82Y-39.37
X86.36Y-39.37
X88.9Y-39.37
X77.47Y-111.125
X77.47Y-113.665
X77.47Y-116.205
T5
X109.22Y-121.92
X109.22Y-129.42
X109.22Y-37.585
X109.22Y-45.085
T6
X77.47Y-46.355
X77.47Y-48.895
X90.678Y-48.641
X93.218Y-48.641
T7
X120.65Y-125.73
X120.015Y-111.125
X120.015Y-41.91
X120.015Y-56.515
X120.015Y-116.84
X120.015Y-50.927
T8
X124.46Y-33.02
X124.46Y-134.62
X73.66Y-33.02
X73.66Y-134.62
X78.105Y-62.865
X120.015Y-104.775
T0
M30
